<svg xmlns="http://www.w3.org/2000/svg" width="507.9" height="140.5" xmlns:v="https://vecta.io/nano"><path d="M23.3 57.2H0l28.7 82.1h28.9l28.7-82.1H63l-19.3 59.7h-1.1zm130.1 32.3h-32.6v-13h36.1V57.2H98.7v82.1h59.4v-19.2h-37.3v-13.4h32.6zm40.3-32.3H171v82.1h22.2V94.8h.5l26.1 44.5h23.6V57.2h-22.2v46.1h-.6zm99.9 0h-33.8v82.1h33.8c25.3 0 38.8-14.7 38.8-41s-13.5-41-38.8-41h0zm-2.4 62.9h-9.3V76.5h9.3c14.4 0 18.4 6.1 18.4 21.8s-4 21.8-18.4 21.8zM385 56.2c-25.1 0-40.3 18.1-40.3 42.1s15.4 42.2 40.3 42.2 40.2-18.2 40.2-42.2-15.1-42.1-40.2-42.1zm0 65.2h0c-12.1 0-17.4-10.1-17.4-23.1s5.4-23 17.4-23 17.2 10.2 17.2 23-5.3 23.1-17.2 23.1zm107-9.8c10.8-4.8 15.1-14.7 15.1-25.8 0-16.3-9.5-28.6-32.8-28.6h-35.1v82.1h22.2v-24.9h10.9l13.7 24.9h21.9l-16-27.7h0zm-18.4-16.4h-12.2V76.4h12.2c7.6 0 10.5 4.1 10.5 9.4s-2.9 9.4-10.5 9.4zM125.4 2h12.7l12.6 36.1h-10.3l-1.8-5.4h-13.9l-1.8 5.4h-10.3L125.2 2zm11 23.5L132 11.8h-.5l-4.4 13.7h9.4zM154 2h15.4c10.3 0 14.4 5.4 14.4 12.6s-4.2 12.6-14.4 12.6h-5.7v10.9h-9.8V2zm15.1 16.7c3.4 0 4.6-1.8 4.6-4.1s-1.3-4.1-4.6-4.1h-5.4v8.2zM187.6 2H203c10.3 0 14.5 5.4 14.5 12.6s-4.2 12.6-14.4 12.6h-5.7v10.9h-9.8zm15.1 16.7c3.4 0 4.6-1.8 4.6-4.1s-1.3-4.1-4.6-4.1h-5.4v8.2zM221.2 2h15.4c10.3 0 14.5 5.4 14.5 12.6s-1.9 9.2-6.7 11.3l7 12.2h-9.6l-6-10.9H231v10.9h-9.8zm15.2 16.7c3.4 0 4.6-1.8 4.6-4.1s-1.3-4.1-4.6-4.1H231v8.2zm18.1 1.3c0-10.6 6.7-18.5 17.8-18.5S290 9.4 290 20s-6.7 18.6-17.7 18.6-17.8-8-17.8-18.6zm17.7 10.2c5.3 0 7.6-4.5 7.6-10.2s-2.3-10.1-7.6-10.1-7.6 4.4-7.6 10.1 2.3 10.2 7.6 10.2zM291.1 2h10.3l8.5 26.3h.5L318.9 2h10.3l-12.6 36.1h-12.7L291.3 2zm41.5 0h25.6v8.5h-15.9v5.7h14.3v7.6h-14.3v5.9h16.4v8.5h-26.2V2.1h.1zm29.9 0h14.9c11.1 0 17.1 6.4 17.1 18.1s-5.9 18.1-17.1 18.1h-14.9V2.1h0zm13.9 27.6c6.4 0 8.1-2.7 8.1-9.6s-1.8-9.6-8.1-9.6h-4.1v19.2z" fill="#d9782e"/><circle cx="272.5" cy="21.1" r="19.5" fill="#27ae60"/><circle cx="272.5" cy="19.5" r="19.5" fill="#2ecc71"/><use href="#B" fill="#27ae60"/><use href="#B" y="-2" fill="#eaefef"/><defs ><path id="B" d="M285.1 16.6l-.1.2-15.1 15.1-8.7-8.7 4-3.9 4.7 4.6 11.2-11.2 3.9 3.8z"/></defs></svg>