<svg xmlns="http://www.w3.org/2000/svg" xmlns:xlink="http://www.w3.org/1999/xlink" id="TITLE_BLUE" version="1.1" viewBox="95.4 123.3 409.7 354.88">
  <!-- Generator: Adobe Illustrator 29.2.1, SVG Export Plug-In . SVG Version: 2.1.0 Build 116)  -->
  <defs>
    <style>
      .st0 {
        stroke: url(#linear-gradient);
      }

      .st0, .st1 {
        fill: #47b2e0;
        stroke-miterlimit: 10;
        stroke-width: 4px;
      }

      .st1 {
        stroke: #000;
      }
    </style>
    <linearGradient id="linear-gradient" x1="187.3" y1="1566.2" x2="413" y2="1566.2" gradientTransform="translate(0 -1349)" gradientUnits="userSpaceOnUse">
      <stop offset="0" stop-color="#333"/>
      <stop offset=".3" stop-color="#2a2a2a"/>
      <stop offset=".7" stop-color="#141414"/>
      <stop offset="1" stop-color="#000"/>
    </linearGradient>
  </defs>
  <path class="st1" d="M427.6,470.8c-23.2-9.2-31.2-27-34.5-35.3-3.2-8.2-4.8-17.3-4.8-27.1s1.7-18.4,5-26.5,8.1-15.2,14.1-21.2c6.1-6,13.2-10.7,21.4-14s19.8-5.2,26.6-5c30.9.9,47.7,21.3,47.7,21.3l-17.5,19.3c-2.9-3-5.9-5.5-9.1-7.7s-6.6-3.8-10.1-5-7.3-1.8-11.2-1.8-10.3,1-15,3c-4.6,2-8.7,4.7-12.2,8.3-3.5,3.5-6.2,7.8-8.3,12.8-2,5-3.1,10.6-3.1,16.6s1,11.8,3,16.8,4.8,9.3,8.4,12.8,7.9,6.3,12.9,8.2c5,1.9,10.6,2.9,16.6,2.9s7.8-.6,11.5-1.7,7.2-2.7,10.3-4.6c3.2-2,8.5-6.9,8.5-6.9l13.8,21.8s-30.2,30.4-74,13h0Z"/>
  <path class="st1" d="M136.7,470.8c-23.2-9.2-31.2-27-34.5-35.3-3.2-8.2-4.8-17.3-4.8-27.1s1.7-18.4,5-26.5,8.1-15.2,14.1-21.2c6.1-6,13.2-10.7,21.4-14s19.8-5.2,26.6-5c30.9.9,47.7,21.3,47.7,21.3l-17.5,19.3c-2.9-3-5.9-5.5-9.1-7.7-3.2-2.2-6.6-3.8-10.1-5s-7.3-1.8-11.2-1.8-10.3,1-15,3c-4.6,2-8.7,4.7-12.2,8.3-3.5,3.5-6.2,7.8-8.3,12.8-2,5-3.1,10.6-3.1,16.6s1,11.8,3,16.8c2,5,4.8,9.3,8.4,12.8,3.6,3.5,7.9,6.3,12.9,8.2,5,1.9,10.6,2.9,16.6,2.9s7.8-.6,11.5-1.7,7.2-2.7,10.3-4.6c3.2-2,8.5-6.9,8.5-6.9l13.8,21.8s-30.2,30.4-74,13h0Z"/>
  <path class="st1" d="M234,473.8v-130.1h25.5l14.6,23.7,15,24.4,8.9,14.6,9.3-14.5,15.7-24.5,15.2-23.7h24.4v130.1h-27.3v-79.7l-19,28.4-12,17.8h-12.3l-11.8-17.9-18.7-28.3v79.7h-27.5Z"/>
  <path class="st0" d="M243.7,249.5c.9-1.1,1.6-1.5,3.2-.8,7.6,3.2,15.8,2.8,22.8-.4s9.9-6.6,13-12c2.7-4.8,3.8-10,3.6-15.1-.3-8.5-4.5-16.6-11.8-22-.9-.7-1.6-1-1-2.5,1.9-5.3,4.3-11.8,6.9-18.7s4.1-11.3,6.2-16.9,4.2-11.5,6.1-16.5c4.1-11.2,7.1-19.3,7.1-19.3,0,0,3,8.1,7.2,19.2s3.9,10.5,6,16.2,4.3,11.5,6.3,17,4.9,13.4,6.8,18.6c.5,1.4.3,2.1-.9,3-7.6,5.3-11.8,13.5-12.1,22s1,10.4,3.7,15.2,8.4,10.2,14.2,12.6,14.6,2.8,21.9-.3c1.1-.5,1.8-.3,2.6.6,3.2,3.8,7.1,8.5,11.3,13.5s8.5,10.2,12.9,15.4,9.3,11.1,13.4,16c8.5,10.2,14.8,17.7,14.8,17.7,0,0-9.2-1.6-21.7-3.8s-13-2.3-20-3.5-15.2-2.7-22-3.8-10.3-1.8-14.1-2.5c-1.3-.2-1.9-.6-1.8-2.1.3-7.1-2.1-13.7-6.4-18.9s-11.1-9.3-18.8-10.3c-7-.9-14,1-19.6,4.8s-9.9,9.7-11.6,16.6c-.7,2.6-1,5.2-.8,8,0,1.1-.3,1.6-1.5,1.8-4.1.7-10,1.8-16.8,2.9s-13.5,2.3-20.6,3.5c-6.3,1.1-12.6,2.2-18.2,3.1-12.4,2.1-21.7,3.7-21.7,3.7,0,0,6.1-7.4,14.4-17.5s7.6-9.2,11.7-14.1,6.9-8.4,10.3-12.4c5.6-6.7,15-18,15-18Z"/>
</svg>