<svg xmlns="http://www.w3.org/2000/svg" xmlns:xlink="http://www.w3.org/1999/xlink" id="TITLE_BLUE" version="1.1" viewBox="190.2 204.6 219.6 190.7">
  <!-- Generator: Adobe Illustrator 29.2.1, SVG Export Plug-In . SVG Version: 2.1.0 Build 116)  -->
  <defs>
    <style>
      .st0 {
        fill: #47b2e0;
        stroke: url(#linear-gradient);
        stroke-miterlimit: 10;
        stroke-width: 4px;
      }
    </style>
    <linearGradient id="linear-gradient" x1="187.2" y1="-1046.6" x2="412.9" y2="-1046.6" gradientTransform="translate(0 -748) scale(1 -1)" gradientUnits="userSpaceOnUse">
      <stop offset="0" stop-color="#333"/>
      <stop offset=".3" stop-color="#2a2a2a"/>
      <stop offset=".7" stop-color="#141414"/>
      <stop offset="1" stop-color="#000"/>
    </linearGradient>
  </defs>
  <path class="st0" d="M243.6,330.8c.9-1.1,1.6-1.5,3.2-.8,7.6,3.2,15.8,2.8,22.8-.4s9.9-6.6,13-12c2.7-4.8,3.8-10,3.6-15.1-.3-8.5-4.5-16.6-11.8-22-.9-.7-1.6-1-1-2.5,1.9-5.3,4.3-11.8,6.9-18.7s4.1-11.3,6.2-16.9,4.2-11.5,6.1-16.5c4.1-11.2,7.1-19.3,7.1-19.3,0,0,3,8.1,7.2,19.2s3.9,10.5,6,16.2,4.3,11.5,6.3,17,4.9,13.4,6.8,18.6c.5,1.4.3,2.1-.9,3-7.6,5.3-11.8,13.5-12.1,22s1,10.4,3.7,15.2,8.4,10.2,14.2,12.6,14.6,2.8,21.9-.3c1.1-.5,1.8-.3,2.6.6,3.2,3.8,7.1,8.5,11.3,13.5s8.5,10.2,12.9,15.4,9.3,11.1,13.4,16c8.5,10.2,14.8,17.7,14.8,17.7,0,0-9.2-1.6-21.7-3.8s-13-2.3-20-3.5-15.2-2.7-22-3.8-10.3-1.8-14.1-2.5c-1.3-.2-1.9-.6-1.8-2.1.3-7.1-2.1-13.7-6.4-18.9s-11.1-9.3-18.8-10.3c-7-.9-14,1-19.6,4.8s-9.9,9.7-11.6,16.6c-.7,2.6-1,5.2-.8,8,0,1.1-.3,1.6-1.5,1.8-4.1.7-10,1.8-16.8,2.9s-13.5,2.3-20.6,3.5c-6.3,1.1-12.6,2.2-18.2,3.1-12.4,2.1-21.7,3.7-21.7,3.7,0,0,6.1-7.4,14.4-17.5s7.6-9.2,11.7-14.1,6.9-8.4,10.3-12.4c5.6-6.7,15-18,15-18h0Z"/>
</svg>