<svg xmlns="http://www.w3.org/2000/svg" xmlns:xlink="http://www.w3.org/1999/xlink" id="TITLE_BLUE" version="1.1" viewBox="24.8 216.1 549.2 167.8">
  <!-- Generator: Adobe Illustrator 29.2.1, SVG Export Plug-In . SVG Version: 2.1.0 Build 116)  -->
  <defs>
    <style>
      .st0 {
        fill: #47b2e0;
        stroke: #000;
        stroke-miterlimit: 10;
        stroke-width: 4px;
		shape-rendering: auto;
      }
    </style>
  </defs>
  <path class="st0" d="M72,327.2c.8-1,1.4-1.3,2.8-.7,11.8,4.9,25.2.2,31.4-10.9,6.2-11.2,3.2-25-7.2-32.6-.8-.6-1.4-.9-.9-2.2,7.6-20.8,23-62.7,23-62.7,0,0,15.7,42.1,23.1,62.3.4,1.2.3,1.8-.8,2.6-10.6,7.5-13.7,21.4-7.4,32.7,6.2,11.2,19.8,15.8,31.7,10.8,1-.4,1.6-.3,2.3.5,14.7,17.6,46,54.9,46,54.9,0,0-49.3-8.6-68.2-11.9-1.1-.2-1.7-.5-1.6-1.8.5-12.8-9-23.9-22.1-25.6-12.3-1.7-24.5,6.7-27.4,18.8-.6,2.3-.9,4.6-.7,7,0,1-.3,1.4-1.3,1.6-16.4,2.9-67.9,11.7-67.9,11.7,0,0,30.5-36.9,45.2-54.5h0Z" />
  <g>
    <path class="st0" d="M251,352.2c-7-2.9-13.1-7-18.3-12.2-5.2-5.3-9.2-11.5-12-18.8-2.8-7.2-4.2-15.1-4.2-23.7s1.5-16.1,4.4-23.2,7.1-13.3,12.4-18.6c5.3-5.3,11.6-9.4,18.8-12.3,7.2-2.9,14.9-4.4,23.3-4.4s10.8.7,16.1,2.2c5.3,1.5,10.1,3.6,14.5,6.4,4.4,2.8,8.2,6.2,11.3,10.1l-15.3,17c-2.5-2.6-5.2-4.9-8-6.8s-5.8-3.4-8.9-4.4-6.4-1.5-9.9-1.5-9.1.9-13.1,2.6c-4.1,1.7-7.6,4.2-10.7,7.3-3,3.1-5.5,6.8-7.3,11.3-1.8,4.4-2.7,9.3-2.7,14.6s.9,10.4,2.6,14.8c1.7,4.4,4.2,8.2,7.3,11.3,3.2,3.1,6.9,5.5,11.3,7.2s9.3,2.5,14.6,2.5,6.8-.5,10.1-1.5c3.3-1,6.3-2.3,9.1-4.1,2.8-1.7,5.2-3.8,7.4-6l12.1,19.1c-2.7,2.9-6.3,5.6-10.7,8-4.4,2.4-9.3,4.3-14.8,5.6-5.4,1.4-10.9,2.3-16.5,2s-15.9-1.6-22.9-4.5Z" />
    <path class="st0" d="M336.4,354.9v-114.1h22.3l33.7,55,35.3-55h21.4v114.1h-24v-69.9l-27.2,40.5h-10.8l-26.7-40.5v69.9h-24,0Z" />
    <path class="st0" d="M528.8,356.5c-8.4,0-16.1-1.4-23.1-4.3-7-2.9-13.1-7-18.3-12.2-5.2-5.3-9.2-11.5-12-18.8-2.8-7.2-4.2-15.1-4.2-23.7s1.5-16.1,4.4-23.2,7.1-13.3,12.4-18.6c5.3-5.3,11.6-9.4,18.8-12.3,7.2-2.9,14.9-4.4,23.3-4.4s10.8.7,16.1,2.2,10.1,3.6,14.5,6.4c4.4,2.8,8.2,6.2,11.3,10.1l-15.3,17c-2.5-2.6-5.2-4.9-8-6.8s-5.8-3.4-8.9-4.4c-3.1-1-6.4-1.5-9.9-1.5s-9.1.9-13.1,2.6c-4.1,1.7-7.6,4.2-10.7,7.3-3,3.1-5.5,6.8-7.3,11.3-1.8,4.4-2.7,9.3-2.7,14.6s.9,10.4,2.6,14.8,4.2,8.2,7.3,11.3c3.2,3.1,6.9,5.5,11.3,7.2s9.3,2.5,14.6,2.5,6.8-.5,10.1-1.5,6.3-2.3,9.1-4.1c2.8-1.7,5.2-3.8,7.4-6l12.1,19.1c-2.7,2.9-6.3,5.6-10.7,8s-9.3,4.3-14.8,5.6c-5.4,1.4-10.9,2-16.5,2l.2-.2h0Z" />
  </g>
</svg>