<svg xmlns="http://www.w3.org/2000/svg" id="Style_A1" data-name="Style A1" viewBox="96.54 255.39 406.93 111.53">
  <defs>
    <style>
      .cls-1 {
        fill: #fafafa;
      }

      .cls-2 {
        fill: #caf4c0;
      }
    </style>
  </defs>
  <path class="cls-1" d="M96.63,301.58h12.68c.38,6.39,4.32,11.46,14.19,11.46,8.36,0,12.97-3.57,12.97-9.49,0-5.36-3.67-7.71-10.24-9.02l-9.02-1.79c-10.71-2.07-18.79-7.05-18.79-18.13,0-12.12,9.68-18.79,24.71-18.79s24.62,6.86,24.62,19.54h-12.69c0-6.01-4.7-9.21-12.22-9.21-8.36,0-11.46,3.95-11.46,8.46,0,3.67,2.26,6.86,8.83,8.27l8.46,1.69c14.66,2.91,20.86,8.64,20.86,18.89,0,13.53-11.09,19.92-26.12,19.92-16.82,0-26.78-8.08-26.78-21.8Z"/>
  <path class="cls-1" d="M162.22,308.72v-25.75h-8.18v-9.4h8.18v-12.5h12.03v12.5h9.58v9.4h-9.58v23.87c0,4.23,1.32,6.58,6.39,6.58,1.13,0,1.97,0,3.76-.19v9.02c-2.07.56-4.42.85-6.95.85-9.21,0-15.22-4.04-15.22-14.38Z"/>
  <path class="cls-1" d="M191.62,273.58h12.03v11.65h.28c1.6-6.58,6.2-12.21,14.47-12.21,1.13,0,2.44.09,3.76.47v10.15c-1.41-.19-2.54-.28-3.76-.28-8.08,0-14.75,4.89-14.75,16.35v22.74h-12.03v-48.86Z"/>
  <path class="cls-1" d="M250.82,313.42c6.2,0,10.81-3.57,11.37-10.71l.09-29.13h12.03l-.09,48.86h-12.03v-10.05h-.38c-.94,4.23-5.64,11-15.97,11-9.58,0-17.01-5.83-16.91-19.07v-30.73h12.03l-.09,27.91c0,7.99,3.48,11.93,9.96,11.93Z"/>
  <path class="cls-1" d="M282.1,298.11c0-18.04,12.12-25.46,24.34-25.46,8.55,0,20.11,3.48,21.89,19.26h-10.9c-1.22-6.58-5.54-9.11-11.09-9.11-8.36,0-12.97,6.11-12.97,15.31s4.6,15.13,12.97,15.13c5.73,0,9.87-2.72,11.09-9.21h10.9c-1.5,15.69-13.25,19.36-21.89,19.36-12.22,0-24.34-7.24-24.34-25.28Z"/>
  <path class="cls-1" d="M341.11,308.72v-25.75h-8.17v-9.4h8.17v-12.5h12.03v12.5h9.59v9.4h-9.59v23.87c0,4.23,1.32,6.58,6.39,6.58,1.13,0,1.97,0,3.76-.19v9.02c-2.07.56-4.42.85-6.95.85-9.21,0-15.22-4.04-15.22-14.38Z"/>
  <path class="cls-2" d="M370.52,256.67h23.87c20.58,0,31.1,11.84,31.1,32.89s-10.52,32.89-31.1,32.89h-23.87v-65.77ZM393.16,311.64c14.38,0,19.73-6.77,19.73-22.08s-5.36-22.08-19.73-22.08h-10.34v44.16h10.34Z"/>
  <path class="cls-2" d="M434.22,256.67h26.12c14.38,0,20.86,6.58,20.86,16.26,0,7.14-3.38,11.37-9.68,13.44,9.58,2.44,14.09,8.46,14.09,16.91,0,10.71-7.33,19.17-24.34,19.17h-27.06v-65.77ZM459.78,283.54c5.36,0,8.93-2.63,8.93-8.46s-3.57-7.99-8.93-7.99h-13.25v16.44h13.25ZM460.72,312.01c8.74,0,12.12-4.41,12.12-10.05s-3.38-10.24-12.12-10.24h-14.19v20.3h14.19Z"/>
  <path class="cls-2" d="M486.71,257.08h-3.01v-1.69h7.9v1.69h-3.01v8.42h-1.89v-8.42Z"/>
  <path class="cls-2" d="M492.73,255.4h2.37l2.95,7.56,2.95-7.56h2.37v10.11h-1.89v-6.79h-.07l-2.63,6.79h-1.44l-2.65-6.79h-.06v6.79h-1.89v-10.11Z"/>
  <g>
    <path class="cls-2" d="M106.92,343.5c-.84-.5-1.78-.75-2.82-.75h-7.56v18.18h3.38v-6.65h4.18c1.04,0,1.98-.26,2.82-.78.84-.52,1.51-1.22,2.01-2.09.5-.88.75-1.86.75-2.95s-.25-2.04-.75-2.91c-.5-.87-1.17-1.55-2.01-2.05ZM105.9,349.84c-.22.4-.5.72-.86.96s-.75.36-1.18.36h-3.95v-5.3h3.95c.43,0,.83.12,1.18.35s.64.55.86.93c.22.39.33.84.33,1.34s-.11.95-.33,1.35Z"/>
    <path class="cls-2" d="M122.33,347.88c-1.07-.61-2.29-.92-3.64-.92s-2.59.31-3.66.92c-1.07.62-1.92,1.46-2.55,2.53s-.93,2.29-.93,3.66.31,2.59.93,3.66c.62,1.07,1.47,1.92,2.55,2.53,1.07.62,2.29.92,3.66.92s2.56-.31,3.64-.92c1.07-.61,1.92-1.46,2.53-2.53.61-1.07.92-2.3.92-3.66s-.31-2.59-.92-3.66c-.62-1.07-1.46-1.92-2.53-2.53ZM122.06,356.26c-.34.64-.8,1.15-1.38,1.53-.58.38-1.24.57-1.99.57s-1.41-.19-2.01-.57c-.6-.38-1.06-.89-1.39-1.53-.33-.64-.49-1.37-.49-2.18s.16-1.55.49-2.19c.33-.65.79-1.16,1.39-1.53.6-.37,1.27-.56,2.01-.56s1.41.19,1.99.56c.58.37,1.04.88,1.38,1.52.34.64.5,1.38.48,2.21.02.82-.14,1.54-.48,2.18Z"/>
    <path class="cls-2" d="M135.94,346.96c-.68,0-1.32.16-1.93.48-.62.32-1.16.76-1.62,1.31-.22.26-.41.55-.57.84l-.03-2.35h-3.14v13.69h3.22v-7.3c0-.49.08-.92.25-1.31s.39-.73.69-1.03c.3-.29.64-.52,1.03-.69.39-.16.8-.25,1.23-.25.28,0,.55.04.83.11s.51.16.7.26l.86-3.51c-.17-.07-.39-.13-.66-.18-.27-.05-.55-.08-.84-.08Z"/>
    <polygon class="cls-2" points="144.77 343.76 141.57 343.76 141.57 347.24 138.87 347.24 138.87 350.2 141.57 350.2 141.57 360.93 144.77 360.93 144.77 350.2 147.76 350.2 147.76 347.24 144.77 347.24 144.77 343.76"/>
    <path class="cls-2" d="M154.18,345.32c.11-.22.29-.39.52-.51.23-.11.52-.17.87-.17.22,0,.46.05.71.16.25.11.49.25.71.44l.99-2.41c-.35-.35-.77-.62-1.27-.82-.5-.2-1.05-.3-1.64-.3-.85,0-1.59.19-2.23.56-.64.37-1.14.88-1.51,1.53-.36.65-.55,1.39-.55,2.22v1.51h-2.13v2.8h2.13v10.6h3.22v-10.6h3.09v-2.8h-3.09v-1.4c0-.31.06-.58.17-.8Z"/>
    <path class="cls-2" d="M169.13,347.88c-1.07-.61-2.29-.92-3.64-.92s-2.59.31-3.66.92c-1.07.62-1.92,1.46-2.55,2.53s-.93,2.29-.93,3.66.31,2.59.93,3.66c.62,1.07,1.47,1.92,2.55,2.53,1.07.62,2.29.92,3.66.92s2.56-.31,3.64-.92c1.07-.61,1.92-1.46,2.53-2.53.61-1.07.92-2.3.92-3.66s-.31-2.59-.92-3.66c-.62-1.07-1.46-1.92-2.53-2.53ZM168.86,356.26c-.34.64-.8,1.15-1.38,1.53-.58.38-1.24.57-1.99.57s-1.41-.19-2.01-.57c-.6-.38-1.06-.89-1.39-1.53-.33-.64-.49-1.37-.49-2.18s.16-1.55.49-2.19c.33-.65.79-1.16,1.39-1.53.6-.37,1.27-.56,2.01-.56s1.41.19,1.99.56c.58.37,1.04.88,1.38,1.52.34.64.5,1.38.48,2.21.02.82-.14,1.54-.48,2.18Z"/>
    <rect class="cls-2" x="175.47" y="341.71" width="3.22" height="19.22"/>
    <path class="cls-2" d="M184.37,340.62c-.62,0-1.12.17-1.48.52s-.55.8-.55,1.35c0,.59.18,1.04.53,1.36s.85.48,1.49.48,1.14-.17,1.51-.52c.36-.35.55-.79.55-1.33,0-.61-.18-1.07-.53-1.39-.36-.32-.86-.48-1.52-.48Z"/>
    <rect class="cls-2" x="182.82" y="347.24" width="3.19" height="13.69"/>
    <path class="cls-2" d="M199.96,347.88c-1.07-.61-2.28-.92-3.64-.92s-2.59.31-3.66.92c-1.07.62-1.92,1.46-2.55,2.53s-.93,2.29-.93,3.66.31,2.59.93,3.66c.62,1.07,1.47,1.92,2.55,2.53,1.07.62,2.29.92,3.66.92s2.56-.31,3.64-.92c1.07-.61,1.92-1.46,2.53-2.53.61-1.07.92-2.3.92-3.66s-.31-2.59-.92-3.66-1.46-1.92-2.53-2.53ZM199.68,356.26c-.34.64-.8,1.15-1.38,1.53-.58.38-1.24.57-1.99.57s-1.41-.19-2.01-.57c-.6-.38-1.06-.89-1.39-1.53-.33-.64-.49-1.37-.49-2.18s.16-1.55.49-2.19c.33-.65.79-1.16,1.39-1.53.6-.37,1.27-.56,2.01-.56s1.41.19,1.99.56c.58.37,1.04.88,1.38,1.52.34.64.5,1.38.48,2.21.02.82-.14,1.54-.48,2.18Z"/>
    <path class="cls-2" d="M223.36,352l-5.69-9.25h-3.2v18.18h3.35v-6.83c0-1.68-.04-3.13-.12-4.35-.03-.48-.11-.94-.16-1.42l4.85,7.66h1.71l4.99-7.7c-.05.53-.14,1.06-.17,1.6-.08,1.25-.12,2.65-.12,4.21v6.83h3.35v-18.18h-3.04l-5.77,9.25Z"/>
    <path class="cls-2" d="M246.21,349.19c-.27-.4-.58-.77-.96-1.09-.43-.36-.93-.64-1.51-.84-.57-.2-1.2-.3-1.9-.3-1.19,0-2.27.3-3.22.91-.95.61-1.7,1.45-2.26,2.52-.55,1.07-.83,2.29-.83,3.66s.28,2.59.83,3.66c.55,1.07,1.29,1.92,2.21,2.55.92.62,1.94.93,3.06.93.66,0,1.28-.1,1.86-.31.58-.21,1.11-.48,1.59-.82.44-.31.8-.67,1.1-1.06v1.93h3.25v-13.69h-3.22v1.94ZM244.5,357.81c-.57.36-1.23.55-1.97.55s-1.4-.18-1.96-.55c-.56-.36-1-.87-1.31-1.52s-.47-1.4-.47-2.25.16-1.57.47-2.21c.31-.64.75-1.14,1.31-1.51.56-.36,1.22-.55,1.96-.55s1.4.18,1.97.55c.57.36,1.02.87,1.34,1.51.32.64.48,1.38.48,2.21s-.16,1.6-.48,2.25c-.32.65-.77,1.16-1.34,1.52Z"/>
    <path class="cls-2" d="M263.26,347.58c-.7-.41-1.57-.62-2.61-.62-.73,0-1.44.16-2.13.47s-1.29.72-1.79,1.23c-.17.17-.3.37-.43.55l-.04-1.97h-3.12v13.69h3.2v-8.26c0-.41.08-.8.25-1.14.16-.35.39-.65.68-.92.28-.27.62-.47,1.01-.62.39-.15.82-.22,1.28-.22.57-.02,1.06.08,1.45.3.4.22.69.55.88,1.01.19.46.28,1.04.28,1.73v8.13h3.2v-8.36c0-1.25-.18-2.29-.53-3.12-.36-.83-.88-1.45-1.59-1.87Z"/>
    <path class="cls-2" d="M278.7,349.19c-.27-.4-.58-.77-.96-1.09-.43-.36-.94-.64-1.51-.84s-1.2-.3-1.9-.3c-1.19,0-2.27.3-3.22.91-.95.61-1.71,1.45-2.26,2.52-.55,1.07-.83,2.29-.83,3.66s.28,2.59.83,3.66c.55,1.07,1.29,1.92,2.21,2.55s1.94.93,3.07.93c.66,0,1.28-.1,1.86-.31.58-.21,1.11-.48,1.58-.82.44-.31.8-.67,1.11-1.06v1.93h3.25v-13.69h-3.22v1.94ZM276.99,357.81c-.57.36-1.23.55-1.97.55s-1.4-.18-1.96-.55c-.56-.36-1-.87-1.31-1.52s-.47-1.4-.47-2.25.16-1.57.47-2.21c.31-.64.75-1.14,1.31-1.51.56-.36,1.22-.55,1.96-.55s1.4.18,1.97.55c.57.36,1.02.87,1.34,1.51.32.64.48,1.38.48,2.21s-.16,1.6-.48,2.25-.77,1.16-1.34,1.52Z"/>
    <path class="cls-2" d="M295.82,349.01c-.17-.2-.32-.41-.54-.59-.33-.28-.7-.53-1.1-.75-.41-.22-.85-.4-1.34-.52-.49-.12-.99-.18-1.51-.18-1.25,0-2.37.31-3.36.92-1,.62-1.78,1.45-2.35,2.52s-.86,2.28-.86,3.65.29,2.58.87,3.62,1.37,1.87,2.36,2.48c.99.61,2.14.91,3.44.91.74,0,1.47-.15,2.18-.45.71-.3,1.3-.7,1.76-1.18.16-.17.27-.34.39-.51v1.32c0,.87-.16,1.59-.47,2.17s-.77,1.01-1.39,1.3c-.61.28-1.38.43-2.3.43-.5,0-1.01-.05-1.52-.16-.51-.1-.99-.25-1.44-.44-.45-.19-.86-.42-1.22-.68l-1.14,2.36c.62.5,1.44.91,2.45,1.22,1.01.31,2.03.47,3.05.47,1.13,0,2.13-.15,3.01-.45.88-.3,1.64-.75,2.26-1.35s1.1-1.32,1.43-2.17c.33-.85.49-1.83.49-2.93v-12.75h-3.14l-.03,1.76ZM293.99,357.79c-.6.36-1.28.55-2.06.55s-1.46-.18-2.05-.55c-.59-.36-1.05-.87-1.39-1.52-.34-.65-.51-1.38-.51-2.2s.17-1.57.51-2.22c.34-.65.8-1.16,1.39-1.53.59-.37,1.27-.56,2.05-.56s1.46.18,2.05.55c.59.36,1.05.87,1.39,1.52.34.65.51,1.4.51,2.25s-.16,1.57-.49,2.21c-.33.64-.79,1.14-1.39,1.51Z"/>
    <path class="cls-2" d="M313.32,348.87c-.57-.6-1.25-1.07-2.03-1.41-.78-.35-1.62-.52-2.52-.52-1.02,0-1.96.18-2.82.53-.86.36-1.59.86-2.21,1.51-.61.65-1.1,1.42-1.44,2.3s-.52,1.86-.52,2.93c0,1.35.31,2.55.92,3.6.62,1.05,1.47,1.87,2.57,2.48,1.1.61,2.37.91,3.8.91.64,0,1.29-.09,1.95-.26s1.29-.41,1.88-.71c.6-.3,1.13-.67,1.6-1.11l-1.58-2.21c-.62.54-1.2.91-1.74,1.12-.54.21-1.13.31-1.77.31-.92,0-1.72-.18-2.4-.53-.68-.36-1.21-.86-1.58-1.52-.25-.44-.38-.94-.46-1.48h10.06l.03-1.12c.02-.97-.13-1.86-.43-2.69-.3-.82-.74-1.53-1.31-2.13ZM306.64,350.26c.58-.33,1.3-.49,2.14-.49.55,0,1.06.12,1.52.35.46.23.84.55,1.13.96.3.41.47.88.52,1.42v.13h-6.93c.07-.34.17-.67.3-.95.3-.61.73-1.09,1.31-1.41Z"/>
    <path class="cls-2" d="M336.57,347.63c-.69-.41-1.56-.62-2.6-.62-.47,0-.94.07-1.41.21-.48.14-.93.34-1.36.61-.43.27-.82.57-1.17.91-.31.3-.55.64-.74,1.01-.17-.49-.38-.93-.65-1.28-.39-.5-.88-.87-1.45-1.11s-1.24-.35-1.99-.35c-.5,0-.99.08-1.48.25-.48.16-.94.39-1.38.68s-.8.62-1.12,1.01c-.07.09-.13.19-.2.29l-.04-1.99h-3.14v13.69h3.22v-8.21c0-.42.08-.8.23-1.14s.37-.65.65-.91c.28-.26.61-.46.99-.61.38-.15.79-.22,1.22-.22.52,0,.96.12,1.32.35s.64.57.83,1.01.29.99.29,1.65v8.08h3.22v-8.18c0-.41.08-.8.23-1.14.16-.35.37-.65.65-.92.28-.27.61-.47,1-.62.39-.15.8-.22,1.23-.22.55,0,1.02.11,1.39.32.37.22.65.55.83,1,.18.45.27,1.02.27,1.71v8.05h3.22v-8.26c0-1.25-.17-2.29-.52-3.14-.35-.85-.87-1.48-1.56-1.89Z"/>
    <path class="cls-2" d="M352.85,348.87c-.57-.6-1.25-1.07-2.03-1.41s-1.62-.52-2.52-.52c-1.02,0-1.96.18-2.82.53-.86.36-1.59.86-2.21,1.51-.61.65-1.1,1.42-1.44,2.3s-.52,1.86-.52,2.93c0,1.35.31,2.55.92,3.6.62,1.05,1.47,1.87,2.57,2.48,1.1.61,2.37.91,3.8.91.64,0,1.29-.09,1.95-.26.66-.17,1.29-.41,1.88-.71s1.13-.67,1.6-1.11l-1.58-2.21c-.62.54-1.2.91-1.74,1.12-.54.21-1.12.31-1.76.31-.92,0-1.72-.18-2.4-.53-.68-.36-1.21-.86-1.58-1.52-.25-.44-.38-.94-.46-1.48h10.06l.03-1.12c.02-.97-.12-1.86-.43-2.69-.3-.82-.74-1.53-1.31-2.13ZM346.16,350.26c.58-.33,1.3-.49,2.14-.49.55,0,1.06.12,1.52.35s.84.55,1.13.96c.29.41.47.88.52,1.42v.13h-6.92c.07-.34.17-.67.3-.95.3-.61.73-1.09,1.31-1.41Z"/>
    <path class="cls-2" d="M367.54,347.58c-.7-.41-1.57-.62-2.61-.62-.73,0-1.44.16-2.13.47-.69.31-1.29.72-1.79,1.23-.17.17-.3.37-.43.55l-.04-1.97h-3.12v13.69h3.2v-8.26c0-.41.08-.8.25-1.14.16-.35.39-.65.67-.92.29-.27.63-.47,1.01-.62.39-.15.82-.22,1.28-.22.57-.02,1.06.08,1.45.3.4.22.69.55.88,1.01.19.46.29,1.04.29,1.73v8.13h3.19v-8.36c0-1.25-.18-2.29-.53-3.12-.36-.83-.88-1.45-1.59-1.87Z"/>
    <polygon class="cls-2" points="377.91 343.76 374.72 343.76 374.72 347.24 372.02 347.24 372.02 350.2 374.72 350.2 374.72 360.93 377.91 360.93 377.91 350.2 380.9 350.2 380.9 347.24 377.91 347.24 377.91 343.76"/>
    <path class="cls-2" d="M402.48,352.06c-.54-.44-1.19-.82-1.95-1.14-.76-.32-1.62-.57-2.57-.76-.57-.12-1.08-.26-1.53-.42-.45-.16-.82-.34-1.11-.55-.28-.21-.51-.45-.66-.71s-.23-.58-.23-.92c0-.45.13-.84.39-1.16s.62-.57,1.08-.74c.46-.17,1-.26,1.62-.26.55,0,1.08.09,1.58.27.5.18.97.45,1.4.8.43.36.82.8,1.17,1.34l2.23-2.21c-.4-.68-.91-1.25-1.52-1.73-.61-.47-1.32-.84-2.13-1.08-.8-.24-1.72-.36-2.74-.36-.9,0-1.74.13-2.52.39-.78.26-1.46.62-2.05,1.09s-1.05,1.02-1.39,1.66c-.34.64-.51,1.34-.51,2.11s.11,1.44.34,2.04c.22.6.58,1.13,1.06,1.61.49.48,1.08.88,1.79,1.19.71.32,1.54.58,2.49.77.5.11.96.22,1.38.34.41.12.79.27,1.12.44.33.17.61.36.83.56.22.2.39.42.51.67.11.25.17.52.17.82,0,.41-.14.78-.42,1.1s-.66.57-1.14.75c-.48.18-1.02.27-1.61.27-1.02,0-1.94-.22-2.75-.67-.81-.45-1.64-1.26-2.49-2.44l-2.21,2.49c.55.76,1.19,1.41,1.9,1.95.71.54,1.51.94,2.39,1.21.88.27,1.85.4,2.91.4,1.37,0,2.56-.23,3.59-.69,1.02-.46,1.81-1.12,2.38-1.97.56-.86.84-1.88.84-3.08,0-.69-.14-1.32-.41-1.88-.28-.56-.68-1.07-1.22-1.51Z"/>
    <path class="cls-2" d="M417.16,347.88c-1.07-.61-2.28-.92-3.64-.92s-2.59.31-3.66.92c-1.07.62-1.92,1.46-2.55,2.53s-.93,2.29-.93,3.66.31,2.59.93,3.66c.62,1.07,1.47,1.92,2.55,2.53,1.07.62,2.29.92,3.66.92s2.56-.31,3.64-.92c1.07-.61,1.92-1.46,2.53-2.53.61-1.07.92-2.3.92-3.66s-.31-2.59-.92-3.66-1.46-1.92-2.53-2.53ZM416.88,356.26c-.34.64-.8,1.15-1.38,1.53-.58.38-1.24.57-1.99.57s-1.41-.19-2.01-.57c-.6-.38-1.06-.89-1.39-1.53-.33-.64-.49-1.37-.49-2.18s.16-1.55.49-2.19.79-1.16,1.39-1.53c.6-.37,1.27-.56,2.01-.56s1.41.19,1.99.56c.58.37,1.04.88,1.38,1.52.34.64.5,1.38.48,2.21.02.82-.14,1.54-.48,2.18Z"/>
    <path class="cls-2" d="M427.58,345.32c.11-.22.29-.39.52-.51.23-.11.52-.17.87-.17.22,0,.46.05.71.16.25.11.49.25.72.44l.99-2.41c-.35-.35-.77-.62-1.27-.82s-1.05-.3-1.64-.3c-.85,0-1.59.19-2.23.56-.64.37-1.14.88-1.51,1.53-.36.65-.55,1.39-.55,2.22v1.51h-2.13v2.8h2.13v10.6h3.22v-10.6h3.09v-2.8h-3.09v-1.4c0-.31.06-.58.17-.8Z"/>
    <polygon class="cls-2" points="437.91 343.76 434.71 343.76 434.71 347.24 432.01 347.24 432.01 350.2 434.71 350.2 434.71 360.93 437.91 360.93 437.91 350.2 440.89 350.2 440.89 347.24 437.91 347.24 437.91 343.76"/>
    <polygon class="cls-2" points="455.99 356.08 452.97 349.29 451.05 349.29 448.05 356.19 445.23 347.22 441.96 347.24 446.56 360.93 448.81 360.93 451.91 353.34 455.15 360.93 457.44 360.93 462.06 347.24 458.79 347.24 455.99 356.08"/>
    <path class="cls-2" d="M473.77,349.19c-.27-.4-.58-.77-.96-1.09-.43-.36-.93-.64-1.51-.84-.57-.2-1.2-.3-1.89-.3-1.2,0-2.27.3-3.22.91-.95.61-1.7,1.45-2.26,2.52-.55,1.07-.83,2.29-.83,3.66s.28,2.59.83,3.66c.55,1.07,1.29,1.92,2.21,2.55.92.62,1.94.93,3.07.93.66,0,1.28-.1,1.86-.31.58-.21,1.11-.48,1.59-.82.43-.31.8-.67,1.1-1.06v1.93h3.25v-13.69h-3.22v1.94ZM472.06,357.81c-.57.36-1.23.55-1.97.55s-1.4-.18-1.96-.55c-.56-.36-1-.87-1.31-1.52s-.47-1.4-.47-2.25.16-1.57.47-2.21c.31-.64.75-1.14,1.31-1.51s1.22-.55,1.96-.55,1.4.18,1.97.55,1.02.87,1.34,1.51c.32.64.48,1.38.48,2.21s-.16,1.6-.48,2.25-.77,1.16-1.34,1.52Z"/>
    <path class="cls-2" d="M488.01,346.96c-.68,0-1.32.16-1.93.48-.62.32-1.16.76-1.62,1.31-.22.26-.41.55-.57.84l-.03-2.35h-3.14v13.69h3.22v-7.3c0-.49.08-.92.25-1.31s.39-.73.69-1.03.64-.52,1.03-.69c.39-.16.8-.25,1.23-.25.28,0,.55.04.83.11s.51.16.7.26l.86-3.51c-.17-.07-.39-.13-.66-.18-.27-.05-.55-.08-.84-.08Z"/>
    <path class="cls-2" d="M503.46,353.68c.02-.97-.13-1.86-.43-2.69-.3-.82-.74-1.53-1.31-2.13s-1.25-1.07-2.03-1.41-1.62-.52-2.52-.52c-1.02,0-1.96.18-2.82.53s-1.59.86-2.21,1.51c-.61.65-1.09,1.42-1.44,2.3-.35.88-.52,1.86-.52,2.93,0,1.35.31,2.55.92,3.6.61,1.05,1.47,1.87,2.57,2.48,1.1.61,2.37.91,3.8.91.64,0,1.29-.09,1.95-.26s1.29-.41,1.88-.71c.6-.3,1.13-.67,1.6-1.11l-1.58-2.21c-.62.54-1.2.91-1.74,1.12-.54.21-1.13.31-1.76.31-.92,0-1.72-.18-2.4-.53-.68-.36-1.21-.86-1.58-1.52-.25-.44-.38-.94-.46-1.48h10.06l.03-1.12ZM495.03,350.26c.58-.33,1.3-.49,2.14-.49.55,0,1.06.12,1.52.35.46.23.84.55,1.13.96.3.41.47.88.52,1.42v.13h-6.93c.07-.34.17-.67.3-.95.3-.61.73-1.09,1.31-1.41Z"/>
  </g>
</svg>