<svg height="300" width="800" xmlns="http://www.w3.org/2000/svg">
<title>Your Diagram Title</title>
<!-- Generated with SankeyMATIC: 2/12/2025, 10:16:52 AM -->
<g transform="translate(129.37117,2)">
<g id="sankey_flows">
<path id="flow0" d="M15 73.58889C122.24398 73.58889 140.8951 31.76139 248.13908 31.76139" fill="none" stroke-width="18.47778" stroke="#e15759" opacity="0.35"><title>Proposed Project → ⚠ Inadequate Plans: 1</title></path>
<path id="flow1" d="M15 92.06667C122.24398 92.06667 140.8951 60.69604 248.13908 60.69604" fill="none" stroke-width="18.47778" stroke="#e15759" opacity="0.35"><title>Proposed Project → ⚠ Inadequate Schedule: 1</title></path>
<path id="flow2" d="M15 110.54444C122.24398 110.54444 140.8951 89.63069 248.13908 89.63069" fill="none" stroke-width="18.47778" stroke="#e15759" opacity="0.35"><title>Proposed Project → ⚠ Inadequate Budget: 1</title></path>
<path id="flow3" d="M15 129.02222C122.24398 129.02222 140.8951 118.56535 248.13908 118.56535" fill="none" stroke-width="18.47778" stroke="#e15759" opacity="0.35"><title>Proposed Project → ⚠ Contract Issues: 1</title></path>
<path id="flow4" d="M15 138.26111v18.47778L248.13908 156.73889v-18.47778z" fill="#e15759" stroke-width="0.5" stroke="#e15759" opacity="0.35"><title>Proposed Project → ⚠ Geotechnical Report: 1</title></path>
<path id="flow5" d="M15 165.97778C122.24398 165.97778 140.8951 176.43465 248.13908 176.43465" fill="none" stroke-width="18.47778" stroke="#e15759" opacity="0.35"><title>Proposed Project → ⚠ Environmental Reports: 1</title></path>
<path id="flow6" d="M15 184.45556C122.24398 184.45556 140.8951 205.36931 248.13908 205.36931" fill="none" stroke-width="18.47778" stroke="#e15759" opacity="0.35"><title>Proposed Project → ⚠ Permits: 1</title></path>
<path id="flow7" d="M15 202.93333C122.24398 202.93333 140.8951 234.30396 248.13908 234.30396" fill="none" stroke-width="18.47778" stroke="#e15759" opacity="0.35"><title>Proposed Project → ⚠ Bonding: 1</title></path>
<path id="flow8" d="M15 221.41111C122.24398 221.41111 140.8951 263.23861 248.13908 263.23861" fill="none" stroke-width="18.47778" stroke="#e15759" opacity="0.35"><title>Proposed Project → ⚠ Contingency: 1</title></path>
<path id="flow9" d="M263.13908 31.76139C370.38306 31.76139 389.03419 73.58889 496.27816 73.58889" fill="none" stroke-width="18.47778" stroke="#76b7b2" opacity="0.35"><title>⚠ Inadequate Plans → Plan and Cost Report  (PCR/PnC): 1</title></path>
<path id="flow10" d="M263.13908 60.69604C370.38306 60.69604 389.03419 92.06667 496.27816 92.06667" fill="none" stroke-width="18.47778" stroke="#76b7b2" opacity="0.35"><title>⚠ Inadequate Schedule → Plan and Cost Report  (PCR/PnC): 1</title></path>
<path id="flow11" d="M263.13908 89.63069C370.38306 89.63069 389.03419 110.54444 496.27816 110.54444" fill="none" stroke-width="18.47778" stroke="#76b7b2" opacity="0.35"><title>⚠ Inadequate Budget → Plan and Cost Report  (PCR/PnC): 1</title></path>
<path id="flow12" d="M263.13908 118.56535C370.38306 118.56535 389.03419 129.02222 496.27816 129.02222" fill="none" stroke-width="18.47778" stroke="#76b7b2" opacity="0.35"><title>⚠ Contract Issues → Plan and Cost Report  (PCR/PnC): 1</title></path>
<path id="flow13" d="M263.13908 138.26111v18.47778L496.27816 156.73889v-18.47778z" fill="#76b7b2" stroke-width="0.5" stroke="#76b7b2" opacity="0.35"><title>⚠ Geotechnical Report → Plan and Cost Report  (PCR/PnC): 1</title></path>
<path id="flow14" d="M263.13908 176.43465C370.38306 176.43465 389.03419 165.97778 496.27816 165.97778" fill="none" stroke-width="18.47778" stroke="#76b7b2" opacity="0.35"><title>⚠ Environmental Reports → Plan and Cost Report  (PCR/PnC): 1</title></path>
<path id="flow15" d="M263.13908 205.36931C370.38306 205.36931 389.03419 184.45556 496.27816 184.45556" fill="none" stroke-width="18.47778" stroke="#76b7b2" opacity="0.35"><title>⚠ Permits → Plan and Cost Report  (PCR/PnC): 1</title></path>
<path id="flow16" d="M263.13908 234.30396C370.38306 234.30396 389.03419 202.93333 496.27816 202.93333" fill="none" stroke-width="18.47778" stroke="#76b7b2" opacity="0.35"><title>⚠ Bonding → Plan and Cost Report  (PCR/PnC): 1</title></path>
<path id="flow17" d="M263.13908 263.23861C370.38306 263.23861 389.03419 221.41111 496.27816 221.41111" fill="none" stroke-width="18.47778" stroke="#76b7b2" opacity="0.35"><title>⚠ Contingency → Plan and Cost Report  (PCR/PnC): 1</title></path>
</g>
<g id="sankey_nodes">
<g class="node">
<rect id="r0_border" class="for_r0" x="0" y="64.35" height="166.3" width="15" stroke="rgb(119, 70, 22)" stroke-width="1" fill="none"></rect>
<rect id="r0" class="for_r0" x="0" y="64.35" height="166.3" width="15" fill="#f28e2c" fill-opacity="0.6"><title>Proposed Project:
9</title></rect>
</g>
<g class="node">
<rect id="r1_border" class="for_r1" x="248.13908" y="22.5225" height="18.47778" width="15" stroke="rgb(110, 43, 44)" stroke-width="1" fill="none"></rect>
<rect id="r1" class="for_r1" x="248.13908" y="22.5225" height="18.47778" width="15" fill="#e15759" fill-opacity="0.6"><title>⚠ Inadequate Plans:
1</title></rect>
</g>
<g class="node">
<rect id="r2_border" class="for_r2" x="248.13908" y="51.45715" height="18.47778" width="15" stroke="rgb(110, 43, 44)" stroke-width="1" fill="none"></rect>
<rect id="r2" class="for_r2" x="248.13908" y="51.45715" height="18.47778" width="15" fill="#e15759" fill-opacity="0.6"><title>⚠ Inadequate Schedule:
1</title></rect>
</g>
<g class="node">
<rect id="r3_border" class="for_r3" x="248.13908" y="80.39181" height="18.47778" width="15" stroke="rgb(110, 43, 44)" stroke-width="1" fill="none"></rect>
<rect id="r3" class="for_r3" x="248.13908" y="80.39181" height="18.47778" width="15" fill="#e15759" fill-opacity="0.6"><title>⚠ Inadequate Budget:
1</title></rect>
</g>
<g class="node">
<rect id="r4_border" class="for_r4" x="248.13908" y="109.32646" height="18.47778" width="15" stroke="rgb(110, 43, 44)" stroke-width="1" fill="none"></rect>
<rect id="r4" class="for_r4" x="248.13908" y="109.32646" height="18.47778" width="15" fill="#e15759" fill-opacity="0.6"><title>⚠ Contract Issues:
1</title></rect>
</g>
<g class="node">
<rect id="r5_border" class="for_r5" x="248.13908" y="138.26111" height="18.47778" width="15" stroke="rgb(110, 43, 44)" stroke-width="1" fill="none"></rect>
<rect id="r5" class="for_r5" x="248.13908" y="138.26111" height="18.47778" width="15" fill="#e15759" fill-opacity="0.6"><title>⚠ Geotechnical Report:
1</title></rect>
</g>
<g class="node">
<rect id="r6_border" class="for_r6" x="248.13908" y="167.19576" height="18.47778" width="15" stroke="rgb(110, 43, 44)" stroke-width="1" fill="none"></rect>
<rect id="r6" class="for_r6" x="248.13908" y="167.19576" height="18.47778" width="15" fill="#e15759" fill-opacity="0.6"><title>⚠ Environmental Reports:
1</title></rect>
</g>
<g class="node">
<rect id="r7_border" class="for_r7" x="248.13908" y="196.13042" height="18.47778" width="15" stroke="rgb(110, 43, 44)" stroke-width="1" fill="none"></rect>
<rect id="r7" class="for_r7" x="248.13908" y="196.13042" height="18.47778" width="15" fill="#e15759" fill-opacity="0.6"><title>⚠ Permits:
1</title></rect>
</g>
<g class="node">
<rect id="r8_border" class="for_r8" x="248.13908" y="225.06507" height="18.47778" width="15" stroke="rgb(110, 43, 44)" stroke-width="1" fill="none"></rect>
<rect id="r8" class="for_r8" x="248.13908" y="225.06507" height="18.47778" width="15" fill="#e15759" fill-opacity="0.6"><title>⚠ Bonding:
1</title></rect>
</g>
<g class="node">
<rect id="r9_border" class="for_r9" x="248.13908" y="253.99972" height="18.47778" width="15" stroke="rgb(110, 43, 44)" stroke-width="1" fill="none"></rect>
<rect id="r9" class="for_r9" x="248.13908" y="253.99972" height="18.47778" width="15" fill="#e15759" fill-opacity="0.6"><title>⚠ Contingency:
1</title></rect>
</g>
<g class="node">
<rect id="r10_border" class="for_r10" x="496.27816" y="64.35" height="166.3" width="15" stroke="rgb(58, 90, 87)" stroke-width="1" fill="none"></rect>
<rect id="r10" class="for_r10" x="496.27816" y="64.35" height="166.3" width="15" fill="#76b7b2" fill-opacity="0.6"><title>Plan and Cost Report  (PCR/PnC):
9</title></rect>
</g>
</g>
<g id="sankey_labels" font-family="sans-serif" font-size="14px" fill="#000000">
<rect id="label0_bg" class="for_r0" x="-127.03816" y="136.44" width="125.34566" height="21.4" rx="3.5" fill="#fff" fill-opacity="0.45" stroke="none" stroke-width="0" stroke-opacity="0"></rect>
<text id="label0" class="for_r0" text-anchor="end" x="-6.3841" y="147.5" font-weight="700" font-size="14px" dy="4.64">Proposed Project</text>
<rect id="label1_bg" class="for_r1" x="103.92904" y="20.70139" width="142.39742" height="21.4" rx="3.5" fill="#fff" fill-opacity="0.45" stroke="none" stroke-width="0" stroke-opacity="0"></rect>
<text id="label1" class="for_r1" text-anchor="end" x="241.75498" y="31.76139" font-weight="700" font-size="14px" dy="4.64">⚠ Inadequate Plans</text>
<rect id="label2_bg" class="for_r2" x="79.03841" y="49.63604" width="167.28707" height="21.4" rx="3.5" fill="#fff" fill-opacity="0.45" stroke="none" stroke-width="0" stroke-opacity="0"></rect>
<text id="label2" class="for_r2" text-anchor="end" x="241.75498" y="60.69604" font-weight="700" font-size="14px" dy="4.64">⚠ Inadequate Schedule</text>
<rect id="label3_bg" class="for_r3" x="93.05404" y="78.57069" width="153.38375" height="21.4" rx="3.5" fill="#fff" fill-opacity="0.45" stroke="none" stroke-width="0" stroke-opacity="0"></rect>
<text id="label3" class="for_r3" text-anchor="end" x="241.75498" y="89.63069" font-weight="700" font-size="14px" dy="4.64">⚠ Inadequate Budget</text>
<rect id="label4_bg" class="for_r4" x="114.03841" y="107.50535" width="132.28707" height="21.4" rx="3.5" fill="#fff" fill-opacity="0.45" stroke="none" stroke-width="0" stroke-opacity="0"></rect>
<text id="label4" class="for_r4" text-anchor="end" x="241.75498" y="118.56535" font-weight="700" font-size="14px" dy="4.64">⚠ Contract Issues</text>
<rect id="label5_bg" class="for_r5" x="82.14779" y="136.44" width="164.29391" height="21.4" rx="3.5" fill="#fff" fill-opacity="0.45" stroke="none" stroke-width="0" stroke-opacity="0"></rect>
<text id="label5" class="for_r5" text-anchor="end" x="241.75498" y="147.5" font-weight="700" font-size="14px" dy="4.64">⚠ Geotechnical Report</text>
<rect id="label6_bg" class="for_r6" x="65.03841" y="165.37465" width="181.28023" height="21.4" rx="3.5" fill="#fff" fill-opacity="0.45" stroke="none" stroke-width="0" stroke-opacity="0"></rect>
<text id="label6" class="for_r6" text-anchor="end" x="241.75498" y="176.43465" font-weight="700" font-size="14px" dy="4.64">⚠ Environmental Reports</text>
<rect id="label7_bg" class="for_r7" x="167.71029" y="194.30931" width="78.61129" height="21.4" rx="3.5" fill="#fff" fill-opacity="0.45" stroke="none" stroke-width="0" stroke-opacity="0"></rect>
<text id="label7" class="for_r7" text-anchor="end" x="241.75498" y="205.36931" font-weight="700" font-size="14px" dy="4.64">⚠ Permits</text>
<rect id="label8_bg" class="for_r8" x="162.30404" y="223.24395" width="83.80953" height="21.4" rx="3.5" fill="#fff" fill-opacity="0.45" stroke="none" stroke-width="0" stroke-opacity="0"></rect>
<text id="label8" class="for_r8" text-anchor="end" x="241.75498" y="234.30396" font-weight="700" font-size="14px" dy="4.64">⚠ Bonding</text>
<rect id="label9_bg" class="for_r9" x="134.28841" y="252.17863" width="112.03219" height="21.4" rx="3.5" fill="#fff" fill-opacity="0.45" stroke="none" stroke-width="0" stroke-opacity="0"></rect>
<text id="label9" class="for_r9" text-anchor="end" x="241.75498" y="263.23861" font-weight="700" font-size="14px" dy="4.64">⚠ Contingency</text>
<rect id="label10_bg" class="for_r10" x="513.3037" y="127.69" width="155.32516" height="38.9" rx="3.5" fill="#fff" fill-opacity="0.45" stroke="none" stroke-width="0" stroke-opacity="0"></rect>
<text id="label10" class="for_r10" text-anchor="start" x="517.66227" y="147.5" font-weight="700" font-size="14px" dy="-4.11">Plan and Cost Report <tspan x="517.66227" dy="17.5" font-weight="700" font-size="14px">(PCR/PnC)</tspan></text>
</g>
</g></svg>