<svg version="1.1" id="Layer_1" xmlns="http://www.w3.org/2000/svg" x="0" y="0" viewBox="0 0 320 30" xml:space="preserve"><style>.st2{fill:#004987}</style><path d="M1.3 11.6l8.8-5.9 7.1 5.6 5.5-2.7 6.1 4.7C27.6-1.4 5.9-5.5 1.3 11.6z" fill="#92c0e9"/><path d="M1 13.4l9-6.2 7.1 5.6 5.5-2.7 6.3 4.9c0 2.8-1.1 4.7-1.1 4.7-9.5-6.1-14.1 4.7-26.2-1.5-.7-2.1-.6-4.8-.6-4.8z" fill="#00953b"/><path class="st2" d="M27.3 20.8c-8.5-6.3-12.9 4.5-25.2-1 4.2 10.6 19.7 11.6 25.2 1zM52.8 2.3l.5 6.9h-.5c-.6-2.1-1.5-3.6-2.7-4.5S47.7 3.4 46 3.4c-1.3 0-2.6.3-3.7 1s-1.9 1.8-2.6 3.3c-.6 1.5-.9 3.4-.9 5.6 0 1.8.3 3.4.9 4.8.6 1.3 1.5 2.4 2.7 3.1 1.2.7 2.5 1.1 4.1 1.1 1.3 0 2.5-.3 3.5-.8 1-.6 2.1-1.7 3.3-3.4l.5.3c-1 1.8-2.2 3.1-3.6 4-1.4.8-3 1.3-4.8 1.3-3.4 0-6-1.2-7.8-3.7-1.4-1.9-2.1-4-2.1-6.6 0-2 .5-3.9 1.4-5.6.9-1.7 2.2-3 3.8-3.9 1.6-.9 3.3-1.4 5.2-1.4 1.5 0 2.9.4 4.3 1.1.4.2.7.3.9.3.3 0 .5-.1.7-.3.3-.3.4-.6.6-1.1h.4z"/><path class="st2" d="M58.4 1.8v10c1.1-1.2 2-2 2.6-2.3.6-.3 1.3-.5 1.9-.5.8 0 1.4.2 2 .6.6.4 1 1.1 1.2 2 .2.6.3 1.8.3 3.5V20c0 .9.1 1.5.2 1.8.1.2.3.4.5.6.2.1.7.2 1.3.2v.5h-6.7v-.5h.3c.6 0 1.1-.1 1.3-.3s.4-.5.5-.9v-6.3c0-1.5-.1-2.5-.2-3-.2-.5-.4-.8-.7-1.1-.3-.2-.7-.4-1.2-.4s-1 .1-1.5.4c-.5.3-1.2.8-1.9 1.6V20c0 .9.1 1.5.2 1.8.1.2.3.4.6.6.3.2.8.2 1.5.2v.5h-6.8v-.5c.6 0 1.1-.1 1.4-.3.2-.1.4-.3.5-.6.1-.3.2-.8.2-1.7V7.5c0-1.6 0-2.5-.1-2.9-.1-.4-.2-.6-.3-.7-.2-.1-.4-.2-.6-.2-.2 0-.5.1-1 .2l-.2-.5 4.1-1.7h.6zm17.7 19.3c-1.4 1.1-2.3 1.7-2.7 1.9-.5.2-1.1.4-1.7.4-.9 0-1.7-.3-2.3-1-.6-.6-.9-1.5-.9-2.6 0-.7.1-1.2.4-1.7.4-.7 1.1-1.3 2.1-1.9 1-.6 2.7-1.3 5.1-2.2v-.5c0-1.4-.2-2.3-.7-2.8-.4-.5-1.1-.8-1.9-.8-.6 0-1.1.2-1.5.5-.4.3-.6.7-.6 1.2v.9c0 .5-.1.8-.4 1.1-.2.3-.5.4-.9.4s-.7-.1-.9-.4c-.2-.3-.4-.6-.4-1.1 0-.9.4-1.6 1.3-2.4.9-.7 2.1-1.1 3.7-1.1 1.2 0 2.2.2 3 .6.6.3 1 .8 1.3 1.5.2.4.3 1.3.3 2.6v4.7c0 1.3 0 2.1.1 2.4s.1.5.2.6c.1.1.2.1.4.1s.3 0 .4-.1c.2-.1.6-.5 1.2-1.1v.8c-1.1 1.5-2.2 2.2-3.2 2.2-.5 0-.9-.2-1.2-.5 0-.3-.1-.9-.2-1.7zm0-1v-5.2c-1.5.6-2.5 1-2.9 1.3-.8.4-1.4.9-1.7 1.4-.3.5-.5 1-.5 1.6 0 .7.2 1.3.6 1.8.4.5.9.7 1.5.7.8-.1 1.8-.6 3-1.6z"/><path class="st2" d="M84.7 11.9c1-1 1.6-1.6 1.8-1.7.4-.4.9-.7 1.5-.9.5-.2 1-.3 1.5-.3.9 0 1.6.3 2.2.7.6.5 1 1.2 1.2 2.2 1-1.2 1.9-2 2.6-2.4.7-.4 1.4-.6 2.2-.6.7 0 1.4.2 1.9.6.6.4 1 1 1.3 1.8.2.6.3 1.5.3 2.7v6c0 .9.1 1.4.2 1.8.1.2.3.4.6.6.3.2.7.2 1.3.2v.5h-6.8v-.5h.3c.6 0 1-.1 1.4-.3.2-.2.4-.4.5-.8 0-.2.1-.7.1-1.5v-5.9c0-1.1-.1-1.9-.4-2.4-.4-.6-1-1-1.9-1-.5 0-1.1.1-1.6.4-.5.3-1.2.8-1.9 1.5V20c0 .9.1 1.5.2 1.8.1.2.3.4.6.6.3.2.8.2 1.5.2v.5h-6.9v-.5c.8 0 1.3-.1 1.6-.3.3-.2.5-.4.6-.8 0-.2.1-.7.1-1.5v-5.9c0-1.1-.2-1.9-.5-2.4-.4-.6-1.1-1-1.8-1-.5 0-1.1.1-1.6.4-.8.4-1.5.9-1.9 1.5V20c0 .9.1 1.5.2 1.8.1.3.3.5.6.6.2.1.7.2 1.5.2v.5h-6.8v-.5c.6 0 1.1-.1 1.3-.2.2-.1.4-.3.6-.6.1-.3.2-.9.2-1.7v-5.2c0-1.5 0-2.5-.1-2.9-.1-.3-.2-.6-.3-.7-.2-.1-.4-.2-.6-.2-.3 0-.6.1-1 .2l-.2-.5L84 8.9h.6v3z"/><path class="st2" d="M102.1 10.7l4.2-1.7h.6v3.2c.7-1.2 1.4-2.1 2.1-2.5s1.5-.7 2.3-.7c1.4 0 2.5.5 3.4 1.6 1.1 1.3 1.7 3 1.7 5.2 0 2.4-.7 4.3-2 5.9-1.1 1.3-2.5 1.9-4.2 1.9-.7 0-1.4-.1-1.9-.3-.4-.1-.8-.4-1.3-.9v4.2c0 .9.1 1.5.2 1.8.1.3.3.5.6.6.3.1.8.2 1.6.2v.6H102v-.6h.4c.5 0 1-.1 1.4-.3.2-.1.3-.3.4-.5.1-.2.2-.9.2-1.9v-13c0-.9 0-1.5-.1-1.7-.1-.2-.2-.4-.4-.5-.2-.1-.4-.2-.7-.2-.2 0-.5.1-.9.2l-.2-.6zm4.8 2.4v5.1c0 1.1 0 1.8.1 2.2.1.6.5 1.1 1 1.5.5.4 1.2.7 2.1.7 1 0 1.8-.4 2.4-1.2.8-1 1.2-2.5 1.2-4.3 0-2.1-.5-3.7-1.4-4.8-.6-.8-1.4-1.2-2.3-1.2-.5 0-1 .1-1.4.4-.3.1-.9.7-1.7 1.6zm14.9-11.3V20c0 .9.1 1.4.2 1.7.1.3.3.5.6.6.3.1.7.2 1.5.2v.5h-6.7v-.5c.6 0 1.1-.1 1.3-.2s.4-.3.5-.6c.1-.3.2-.9.2-1.7V7.5c0-1.5 0-2.5-.1-2.9-.1-.4-.2-.6-.3-.7-.2-.1-.4-.2-.6-.2-.3 0-.6.1-1 .2l-.4-.5 4.1-1.7h.7zM132 21.1c-1.4 1.1-2.3 1.7-2.7 1.9-.5.2-1.1.4-1.7.4-.9 0-1.7-.3-2.3-1-.6-.6-.9-1.5-.9-2.6 0-.7.1-1.2.4-1.7.4-.7 1.1-1.3 2.1-1.9 1-.6 2.7-1.3 5.1-2.2v-.5c0-1.4-.2-2.3-.7-2.8-.4-.5-1.1-.8-1.9-.8-.6 0-1.1.2-1.5.5-.4.3-.6.7-.6 1.2v.9c0 .5-.1.8-.4 1.1-.2.3-.5.4-.9.4s-.7-.1-.9-.4c-.2-.3-.4-.6-.4-1.1 0-.9.4-1.6 1.3-2.4.9-.7 2.1-1.1 3.7-1.1 1.2 0 2.2.2 3 .6.6.3 1 .8 1.3 1.5.2.4.3 1.3.3 2.6v4.7c0 1.3 0 2.1.1 2.4s.1.5.2.6c.1.1.2.1.4.1s.3 0 .4-.1c.2-.1.6-.5 1.2-1.1v.8c-1.1 1.5-2.2 2.2-3.2 2.2-.5 0-.9-.2-1.2-.5-.1-.3-.2-.9-.2-1.7zm0-1v-5.2c-1.5.6-2.5 1-2.9 1.3-.8.4-1.4.9-1.7 1.4-.3.5-.5 1-.5 1.6 0 .7.2 1.3.6 1.8.4.5.9.7 1.5.7.7-.1 1.7-.6 3-1.6z"/><path class="st2" d="M141.2 8.9v11c0 .9.1 1.4.2 1.7.1.3.3.5.6.6.2.1.7.2 1.3.2v.5h-6.7v-.5c.7 0 1.1-.1 1.3-.2s.4-.3.5-.6c.1-.3.2-.9.2-1.7v-5.3c0-1.5 0-2.5-.1-2.9-.1-.3-.2-.5-.3-.7-.1-.1-.4-.2-.6-.2-.3 0-.6.1-1 .2l-.2-.5 4.1-1.7h.7zm-1.3-7.1c.4 0 .8.1 1.1.4s.4.7.4 1.1c0 .4-.1.8-.4 1.1-.3.3-.7.4-1.1.4-.4 0-.8-.2-1.1-.4-.3-.3-.4-.7-.4-1.1 0-.4.1-.8.4-1.1s.7-.4 1.1-.4z"/><path class="st2" d="M147.6 11.8c1.6-1.9 3.1-2.9 4.6-2.9.7 0 1.4.2 1.9.6.5.4 1 1 1.3 1.9.2.6.3 1.5.3 2.8V20c0 .9.1 1.5.2 1.8.1.2.3.4.5.6.2.1.7.2 1.4.2v.5H151v-.5h.3c.6 0 1.1-.1 1.3-.3.3-.2.4-.5.5-.9 0-.2.1-.6.1-1.4v-5.6c0-1.2-.2-2.2-.5-2.7-.3-.6-.9-.8-1.6-.8-1.2 0-2.4.6-3.6 1.9V20c0 .9.1 1.5.2 1.7.1.3.3.5.6.6.2.1.7.2 1.5.2v.5H143v-.5h.3c.7 0 1.2-.2 1.4-.5.2-.4.4-1 .4-2v-5.1c0-1.6 0-2.7-.1-3-.1-.4-.2-.6-.3-.7-.2-.1-.4-.2-.6-.2-.3 0-.6.1-1 .2l-.2-.5L147 9h.6v2.8zm13.8-8.9h5.5L179.4 18V6.4c0-1.2-.1-2-.4-2.3-.4-.4-1-.6-1.8-.6h-.7v-.6h7.1v.5h-.7c-.9 0-1.5.3-1.8.8-.2.3-.3 1-.3 2.2v17h-.5L166.8 7.2v12.4c0 1.2.1 2 .4 2.3.4.4 1 .6 1.8.6h.7v.5h-7.1v-.5h.7c.9 0 1.5-.3 1.8-.8.2-.3.3-1 .3-2.2v-14c-.6-.7-1-1.1-1.3-1.3-.3-.2-.8-.4-1.3-.6-.3-.1-.7-.1-1.3-.1v-.6zm29.7 18.2c-1.4 1.1-2.3 1.7-2.7 1.9-.5.2-1.1.4-1.7.4-.9 0-1.7-.3-2.3-1-.6-.6-.9-1.5-.9-2.5 0-.7.1-1.2.4-1.7.4-.7 1.1-1.3 2.1-1.9 1-.6 2.7-1.3 5.1-2.2v-.5c0-1.4-.2-2.3-.7-2.8s-1.1-.8-1.9-.8c-.6 0-1.1.2-1.5.5-.4.3-.6.7-.6 1.2v.9c0 .5-.1.8-.4 1.1-.2.2-.5.4-.9.4s-.7-.1-.9-.4c-.2-.3-.4-.6-.4-1.1 0-.9.4-1.6 1.3-2.3.9-.7 2.1-1.1 3.7-1.1 1.2 0 2.2.2 3 .6.6.3 1 .8 1.3 1.4.2.4.3 1.3.3 2.6v4.6c0 1.3 0 2.1.1 2.4 0 .3.1.5.2.6.1.1.2.1.4.1s.3 0 .4-.1c.2-.1.6-.5 1.2-1.1v.8c-1.1 1.5-2.2 2.2-3.2 2.2-.5 0-.9-.2-1.2-.5 0-.3-.2-.9-.2-1.7zm0-1V15c-1.5.6-2.5 1-2.9 1.3-.8.4-1.4.9-1.7 1.4-.3.5-.5 1-.5 1.6 0 .7.2 1.3.6 1.8.4.5.9.7 1.5.7.8-.2 1.8-.7 3-1.7zM199.3 5v4.5h3.2v1h-3.2v8.8c0 .9.1 1.5.4 1.8.3.3.6.5 1 .5.3 0 .6-.1 1-.3.3-.2.5-.5.7-.9h.6c-.3 1-.8 1.7-1.5 2.2-.6.5-1.3.7-2 .7-.5 0-.9-.1-1.3-.4s-.8-.6-1-1.1c-.2-.5-.3-1.2-.3-2.2v-9.1h-2.2V10c.5-.2 1.1-.6 1.7-1.1.6-.5 1.1-1.1 1.5-1.8.2-.4.5-1.1 1-2.1h.4z"/><path class="st2" d="M207 9.1V20c0 .9.1 1.4.2 1.7.1.3.3.5.6.6.2.1.7.2 1.3.2v.5h-6.7v-.5c.7 0 1.1-.1 1.3-.2.2-.1.4-.3.5-.6.1-.3.2-.9.2-1.7v-5.2c0-1.5 0-2.4-.1-2.9-.1-.3-.2-.5-.3-.7-.1-.1-.4-.2-.6-.2-.3 0-.6.1-1 .2l-.2-.5 4.1-1.7h.7zM205.7 2c.4 0 .8.1 1.1.4.3.3.4.6.4 1.1s-.1.8-.4 1.1c-.3.3-.7.4-1.1.4-.4 0-.8-.1-1.1-.4-.3-.3-.4-.7-.4-1.1s.1-.8.4-1.1c.3-.3.7-.4 1.1-.4zm10.1 7.1c2.1 0 3.7.8 5 2.3 1.1 1.3 1.6 2.9 1.6 4.6 0 1.2-.3 2.4-.9 3.7-.6 1.2-1.4 2.2-2.4 2.8-1 .6-2.2.9-3.5.9-2.1 0-3.7-.8-4.9-2.4-1-1.4-1.5-2.9-1.5-4.6 0-1.2.3-2.5.9-3.7.6-1.2 1.4-2.1 2.5-2.7 1-.6 2.1-.9 3.2-.9zm-.4.9c-.5 0-1.1.2-1.6.5s-1 .9-1.3 1.6c-.3.8-.5 1.8-.5 3 0 2 .4 3.7 1.2 5.1.8 1.4 1.8 2.2 3.1 2.2 1 0 1.8-.4 2.4-1.2.6-.8.9-2.2.9-4.1 0-2.4-.5-4.3-1.6-5.7-.6-.9-1.5-1.4-2.6-1.4z"/><path class="st2" d="M226.8 11.9c1.6-1.9 3.1-2.9 4.6-2.9.7 0 1.4.2 1.9.6.5.4 1 1 1.3 1.8.2.6.3 1.5.3 2.7V20c0 .9.1 1.4.2 1.8.1.2.3.4.5.6.2.1.7.2 1.4.2v.5h-6.8v-.5h.3c.6 0 1.1-.1 1.3-.3.3-.2.4-.5.5-.9 0-.1.1-.6.1-1.4v-5.6c0-1.2-.2-2.1-.5-2.7-.3-.6-.9-.8-1.6-.8-1.2 0-2.4.6-3.6 1.9V20c0 .9.1 1.5.2 1.7.1.3.3.5.6.6.2.1.7.2 1.5.2v.5h-6.8v-.5h.3c.7 0 1.2-.2 1.4-.5.2-.4.4-1 .4-2v-5c0-1.6 0-2.6-.1-3-.1-.4-.2-.6-.3-.7-.2-.1-.4-.2-.6-.2-.3 0-.6.1-1 .2l-.2-.5 4.1-1.7h.6v2.8zm17.5 9.2c-1.4 1.1-2.3 1.7-2.7 1.9-.5.2-1.1.4-1.7.4-.9 0-1.7-.3-2.3-1-.6-.6-.9-1.5-.9-2.5 0-.7.1-1.2.4-1.7.4-.7 1.1-1.3 2.1-1.9 1-.6 2.7-1.3 5.1-2.2v-.5c0-1.4-.2-2.3-.7-2.8s-1.1-.8-1.9-.8c-.6 0-1.1.2-1.5.5-.4.3-.6.7-.6 1.2v.9c0 .5-.1.8-.4 1.1-.2.2-.5.4-.9.4s-.7-.1-.9-.4c-.2-.3-.4-.6-.4-1.1 0-.9.4-1.6 1.3-2.3.9-.7 2.1-1.1 3.7-1.1 1.2 0 2.2.2 3 .6.6.3 1 .8 1.3 1.4.2.4.3 1.3.3 2.6v4.6c0 1.3 0 2.1.1 2.4 0 .3.1.5.2.6.1.1.2.1.4.1s.3 0 .4-.1c.2-.1.6-.5 1.2-1.1v.8c-1.1 1.5-2.2 2.2-3.2 2.2-.5 0-.9-.2-1.2-.5 0-.3-.2-.9-.2-1.7zm0-1V15c-1.5.6-2.5 1-2.9 1.3-.8.4-1.4.9-1.7 1.4-.3.5-.5 1-.5 1.6 0 .7.2 1.3.6 1.8.4.5.9.7 1.5.7.8-.2 1.8-.7 3-1.7z"/><path class="st2" d="M253.3 2v18c0 .9.1 1.4.2 1.7.1.3.3.5.6.6.3.1.7.2 1.5.2v.5h-6.7v-.5c.6 0 1.1-.1 1.3-.2.2-.1.4-.3.5-.6.1-.3.2-.9.2-1.7V7.6c0-1.5 0-2.5-.1-2.8-.1-.4-.2-.6-.3-.7-.2-.1-.4-.2-.6-.2-.3 0-.6.1-1 .2l-.3-.5 4.1-1.7h.6zm19.8 10.8c1.3.3 2.3.8 3 1.4.9.9 1.4 2 1.4 3.3 0 1-.3 2-.9 2.9-.6.9-1.4 1.6-2.5 2-1 .4-2.6.6-4.8.6h-9v-.5h.7c.8 0 1.4-.3 1.7-.8.2-.3.3-1.1.3-2.2v-13c0-1.2-.1-2-.4-2.4-.4-.4-.9-.7-1.6-.7h-.7v-.5h8.3c1.5 0 2.8.1 3.7.4 1.4.4 2.5 1 3.2 1.9.7.9 1.1 1.9 1.1 3.1 0 1-.3 1.9-.9 2.7-.6.8-1.4 1.4-2.6 1.8zm-7.4-.8c.3.1.7.1 1.2.2.4 0 .9.1 1.5.1 1.4 0 2.4-.2 3.1-.5.7-.3 1.2-.8 1.6-1.4.4-.6.5-1.3.5-2.1 0-1.2-.5-2.2-1.4-3-.9-.8-2.2-1.2-4-1.2-.9 0-1.8.1-2.5.3V12zm0 9.6c1.1.3 2.2.4 3.2.4 1.7 0 3-.4 3.9-1.2.9-.8 1.3-1.8 1.3-3 0-.8-.2-1.5-.6-2.3-.4-.7-1.1-1.3-2-1.7-.9-.4-2-.6-3.4-.6h-1.5c-.4 0-.7.1-1 .1v8.3zm20.1-.5c-1.4 1.1-2.3 1.7-2.7 1.9-.5.2-1.1.4-1.7.4-.9 0-1.7-.3-2.3-1-.6-.6-.9-1.5-.9-2.5 0-.7.1-1.2.4-1.7.4-.7 1.1-1.3 2.1-1.9 1-.6 2.7-1.3 5.1-2.2v-.5c0-1.4-.2-2.3-.7-2.8s-1.1-.8-1.9-.8c-.6 0-1.1.2-1.5.5-.4.3-.6.7-.6 1.2v.9c0 .5-.1.8-.4 1.1-.2.2-.5.4-.9.4s-.7-.1-.9-.4c-.2-.3-.4-.6-.4-1.1 0-.9.4-1.6 1.3-2.3.9-.7 2.1-1.1 3.7-1.1 1.2 0 2.2.2 3 .6.6.3 1 .8 1.3 1.4.2.4.3 1.3.3 2.6v4.6c0 1.3 0 2.1.1 2.4 0 .3.1.5.2.6.1.1.2.1.4.1s.3 0 .4-.1c.2-.1.6-.5 1.2-1.1v.8c-1.1 1.5-2.2 2.2-3.2 2.2-.5 0-.9-.2-1.2-.5 0-.3-.2-.9-.2-1.7zm0-1V15c-1.5.6-2.5 1-2.9 1.3-.8.4-1.4.9-1.7 1.4-.3.5-.5 1-.5 1.6 0 .7.2 1.3.6 1.8.4.5.9.7 1.5.7.8-.2 1.8-.7 3-1.7z"/><path class="st2" d="M293.6 11.9c1.6-1.9 3.1-2.9 4.6-2.9.7 0 1.4.2 1.9.6.5.4 1 1 1.3 1.8.2.6.3 1.5.3 2.7V20c0 .9.1 1.4.2 1.8.1.2.3.4.5.6.2.1.7.2 1.4.2v.5H297v-.5h.3c.6 0 1.1-.1 1.3-.3.3-.2.4-.5.5-.9 0-.1.1-.6.1-1.4v-5.6c0-1.2-.2-2.1-.5-2.7-.3-.6-.9-.8-1.6-.8-1.2 0-2.4.6-3.6 1.9V20c0 .9.1 1.5.2 1.7.1.3.3.5.6.6.2.1.7.2 1.5.2v.5H289v-.5h.3c.7 0 1.2-.2 1.4-.5.2-.4.4-1 .4-2v-5c0-1.6 0-2.6-.1-3-.1-.4-.2-.6-.3-.7-.2-.1-.4-.2-.6-.2-.3 0-.6.1-1 .2l-.2-.5 4.1-1.7h.6v2.8zm15-9.9v13.5l3.5-3.2c.7-.7 1.2-1.1 1.3-1.3.1-.1.1-.2.1-.4s-.1-.4-.2-.5c-.2-.1-.4-.2-.8-.2v-.4h6v.5c-.8 0-1.5.1-2 .4-.5.2-1.1.6-1.8 1.2l-3.5 3.2 3.5 4.4c1 1.2 1.6 2 2 2.3.5.5.9.8 1.3.9.2.1.7.1 1.3.1v.5h-6.7v-.5c.4 0 .6-.1.8-.2.1-.1.2-.2.2-.4s-.2-.6-.6-1.1l-4.2-5.3V20c0 .9.1 1.5.2 1.7.1.3.3.5.5.6.2.1.7.2 1.5.2v.5h-7v-.5c.7 0 1.2-.1 1.6-.3.2-.1.4-.3.5-.5.1-.3.2-.9.2-1.7V7.7c0-1.6 0-2.5-.1-2.9-.1-.4-.2-.6-.3-.7-.2-.1-.4-.2-.6-.2-.2 0-.5.1-.9.3l-.3-.5 4.1-1.7h.4z"/></svg>