<svg id="Layer_1" data-name="Layer 1" xmlns="http://www.w3.org/2000/svg" viewBox="0 0 760.05 221.97"><defs><style>.cls-1{fill:#212a45;}</style></defs><title>Crea RGB</title><path class="cls-1" d="M691.95,188.68a2.07,2.07,0,0,0-1.91-1.27H621.37a2.07,2.07,0,0,0-1.91,1.27L556.27,337.84H468.85v-22h67.77a2.07,2.07,0,0,0,2.07-2.07V269.93a2.07,2.07,0,0,0-2.07-2.07H468.85V245.56h90.66a2.07,2.07,0,0,0,2.07-2.07v-54a2.07,2.07,0,0,0-2.07-2.07H399.13a2.07,2.07,0,0,0-2.07,2.07v45.64c-10.1-29.43-41.24-47.71-81.27-47.71H212.26a2.07,2.07,0,0,0-2.07,2.07v28.35a109.33,109.33,0,0,0-81.49-36.71c-60.49,0-109.7,49.79-109.7,111s49.21,111,109.7,111a109.34,109.34,0,0,0,81.49-36.71v28.35a2.07,2.07,0,0,0,2.07,2.07h67.65a2.07,2.07,0,0,0,2.07-2.07V326.52h7.48l37.7,69.22a2.08,2.08,0,0,0,1.82,1.08H608a2.07,2.07,0,0,0,1.93-1.32L655.7,278.56l14.71,37.55H653.53a2.07,2.07,0,0,0-1.93,1.32l-17.83,45.78A2.07,2.07,0,0,0,635.7,366H690l11.54,29.47a2.07,2.07,0,0,0,1.93,1.32H777a2.07,2.07,0,0,0,1.91-2.88ZM282,241.26h24.83c15.22,0,20.64,9.27,20.64,17.95,0,4.21-1.49,17.95-20.64,17.95H282ZM128.7,335.66c-22.32,0-40.47-19.53-40.47-43.54s18.15-43.54,40.47-43.54c13.67,0,26.75,7.76,34.14,20.25a2.08,2.08,0,0,0,2.75.78l44.61-23.48v92l-44.61-23.48a2.08,2.08,0,0,0-2.75.78C155.45,327.9,142.37,335.66,128.7,335.66Zm231.37-17.52c18.41-8,31.2-20.92,37-37.5v99.47Z" transform="translate(-19 -181.13)"/></svg>