<?xml version="1.0" encoding="utf-8"?>
<!-- Generator: Adobe Illustrator 19.0.0, SVG Export Plug-In . SVG Version: 6.00 Build 0)  -->
<svg version="1.1" id="Layer_1" xmlns="http://www.w3.org/2000/svg" xmlns:xlink="http://www.w3.org/1999/xlink" x="0px" y="0px"
	 viewBox="0 0 125 125" style="enable-background:new 0 0 125 125;" xml:space="preserve">
<g>
	<rect y="0" style="fill:#FFFFFF;" width="125" height="125"/>
	<path style="fill:#272A56;" d="M9.3,9.3v106.3h106.3V9.3H9.3z M56,78.9c-3.1,2-6.6,3-10.2,3c-6,0-10.8-1.9-14.4-5.8
		c-3.3-3.6-4.9-8-4.9-13.4c0-5.5,1.7-10.1,5.2-13.8c3.6-3.9,8.4-5.8,14.2-5.8c2,0,4.1,0.3,6.3,0.9c2.1,0.6,3.3,0.9,3.6,0.9
		c0.5,0,1-0.1,1.5-0.4c0.5-0.3,0.8-0.8,1-1.4h1.2l0.5,12.6h-1.3c-0.8-2.5-1.7-4.5-2.9-6.1c-2.3-2.9-5.4-4.3-9.3-4.3
		c-3.9,0-7.1,1.6-9.6,4.7c-2.5,3.1-3.8,7.4-3.8,12.8c0,5,1.3,9,3.9,12c2.6,3,5.9,4.5,10,4.5c2.9,0,5.6-0.7,8-2.1
		c1.4-0.8,2.9-2,4.6-3.6l1,1C59.4,76.3,57.8,77.7,56,78.9z M97.2,53.3c-0.7-3-1.5-5-2.5-5.9c-1-0.9-3.1-1.4-6.4-1.4h-3.1v28.8
		c0,2.2,0.3,3.5,1,4c0.7,0.5,2.1,0.9,4.4,1v1H74.2v-1c2.4-0.2,3.9-0.6,4.4-1.2c0.6-0.6,0.9-2.1,0.9-4.5V46.1h-3.2
		c-3.1,0-5.2,0.4-6.3,1.3c-1.1,0.9-2,2.9-2.5,5.9h-1.4l0.3-9.5h31.8l0.3,9.5H97.2z"/>
	<path style="fill:#272A56;" d="M125,125H0V0h125V125z M2.5,122.5h119.9V2.5H2.5V122.5z"/>
</g>
</svg>
