<?xml version="1.0" encoding="UTF-8" standalone="no"?>
<svg width="166px" height="44px" viewBox="0 0 166 44" version="1.1" xmlns="http://www.w3.org/2000/svg" xmlns:xlink="http://www.w3.org/1999/xlink">
    <!-- Generator: Sketch 48.2 (47327) - http://www.bohemiancoding.com/sketch -->
    <title>header-logo-desktop-regions-standard</title>
    <desc>Created with Sketch.</desc>
    <defs></defs>
    <g id="Symbols" stroke="none" stroke-width="1" fill="none" fill-rule="evenodd">
        <g id="header-logo-desktop-regions-standard">
            <g id="Regions-Logo">
                <path d="M0,27.3672768 L10.3606755,13.3804608 L16.6668936,27.3672768 L0,27.3672768 Z M10.7433,12.9249984 L15.9397415,5.8360064 L18.584433,27.3739584 L10.7433,12.9249984 Z M20.2012468,0.0002784 L24.1498798,5.3075104 L20.2012468,27.3734944 L16.2793,5.2917344 L20.2012468,0.0002784 Z M21.9172596,27.3739584 L24.4956957,5.8035264 L29.7445894,12.8776704 L21.9172596,27.3739584 Z M23.865166,27.3739584 L30.0756819,13.3453824 L40.4796074,27.3739584 L23.865166,27.3739584 Z" id="pyramid" fill="#88BB00"></path>
                <g id="regions" transform="translate(47.000000, 7.000000)" fill="#558800">
                    <path d="M7.77106383,9.9631904 C11.5807447,10.2323104 13.3319096,9.0565344 13.3319096,5.7936864 C13.3319096,3.2723104 11.8899362,1.8942304 9.14402128,1.8942304 L7.77106383,1.8942304 L7.77106383,9.9631904 M3.343,4.0453344 C3.343,2.4009184 2.96571277,1.7624544 0.800452128,1.3569184 L0.800452128,0.7834144 L10.3476596,0.7834144 C15.9075851,0.7834144 18.1400213,2.9707104 18.1400213,5.7268704 C18.1400213,7.7415584 16.9731915,9.5929184 14.0892447,10.3965664 L14.0892447,10.4661664 C16.3189202,10.9709984 18.4814202,17.2554144 20.3034415,19.0362464 C20.8169202,19.5438624 21.2623032,19.7433824 22.1217819,19.8779424 L22.1217819,20.4505184 L16.3189202,20.4505184 C14.1214521,17.8938784 12.6813191,13.4905184 11.1362819,11.9769504 C10.2436755,11.1046304 9.5562766,11.0721504 7.77106383,11.0721504 L7.77106383,17.1227104 C7.77106383,18.8701344 8.49435106,19.6106784 10.3476596,19.8779424 L10.3476596,20.4505184 L0.800452128,20.4505184 L0.800452128,19.8779424 C2.45223404,19.7433824 3.343,18.9369504 3.343,17.3584224 L3.343,4.0453344" id="R"></path>
                    <path d="M35.2754872,15.1985952 L34.7712106,15.1985952 C34.5844074,13.8743392 33.8924074,13.2507232 32.6206734,13.2507232 L29.8848809,13.2507232 L29.8848809,17.7199712 C29.8848809,19.0980512 30.4673755,19.5898912 32.0105723,19.5898912 L32.9123809,19.5898912 C34.8236628,19.5898912 35.6748596,18.2155232 36.1772957,16.7585632 L36.6282,16.7585632 L36.3374128,20.4501472 L24.4951947,20.4501472 L24.4951947,20.0065632 C26.2215138,19.6455712 26.4607691,19.1231072 26.4607691,17.5668512 L26.4607691,7.7894432 C26.4607691,6.4642592 26.1386947,5.9946912 24.4951947,5.6828832 L24.4951947,5.2420832 L36.1515298,5.2420832 L36.1515298,8.6181472 L35.6997053,8.6181472 C35.1945085,6.6712032 34.6101734,6.0986272 32.8875351,6.0986272 L29.8848809,6.0986272 L29.8848809,12.3904672 L32.6206734,12.3904672 C33.8675617,12.3904672 34.452817,11.8717152 34.7712106,10.4927072 L35.2754872,10.4927072 L35.2754872,15.1985952" id="E"></path>
                    <path d="M54.0742378,19.7488576 C52.5899346,20.4504256 50.3841846,20.8401856 48.0477644,20.8401856 C42.4436686,20.8401856 39.603892,16.8637056 39.603892,12.9633216 C39.603892,8.3103296 43.1872005,4.8535296 48.0477644,4.8535296 C50.4099505,4.8535296 51.4737165,5.7620416 52.4822697,5.7620416 C52.9055676,5.7620416 53.1981952,5.6302656 53.5975676,5.2423616 L54.0742378,5.2423616 L54.0742378,9.5046656 L53.5975676,9.5046656 C52.6672324,7.1911616 50.5967537,5.7100736 48.2584931,5.7100736 C45.0736367,5.7100736 43.318791,8.5182016 43.318791,13.2240896 C43.318791,18.0830976 45.4472431,19.9827136 48.3118654,19.9827136 C49.719791,19.9827136 50.6501261,19.6161536 50.6501261,18.3698496 L50.6501261,16.1092416 C50.6501261,15.1218496 50.2516739,14.4713216 49.058158,14.2356096 L49.058158,13.7929536 L55.588908,13.7929536 L55.588908,14.2356096 C54.4441633,14.5483456 54.0742378,15.1218496 54.0742378,16.5259136 L54.0742378,19.7488576" id="G"></path>
                    <path d="M64.0563378,17.8747616 C64.0563378,19.2287136 64.4050984,19.6166176 66.0228324,20.0063776 L66.0228324,20.4499616 L58.6703324,20.4499616 L58.6703324,20.0063776 C60.5806941,19.5386656 60.6303856,19.0189856 60.6303856,17.5397536 L60.6303856,7.8170976 C60.6303856,6.4650016 60.2871463,6.0743136 58.6703324,5.6826976 L58.6703324,5.2428256 L66.0228324,5.2428256 L66.0228324,5.6826976 C64.1630824,6.0993696 64.0563378,6.6710176 64.0563378,8.1270496 L64.0563378,17.8747616" id="I"></path>
                    <path d="M78.0240633,5.7101664 C74.9717176,5.7101664 73.2978505,8.1786464 73.2978505,12.9884704 C73.2978505,16.6568544 74.5189729,19.9828064 78.0240633,19.9828064 C80.626425,19.9828064 82.776042,17.9820384 82.776042,12.9624864 C82.776042,8.6983264 81.4251697,5.7101664 78.0240633,5.7101664 M78.0240633,20.8402784 C73.1147282,20.8402784 69.5820314,17.5124704 69.5820314,12.8613344 C69.5820314,8.2064864 73.1147282,4.8536224 78.0240633,4.8536224 C82.9637654,4.8536224 86.495542,8.2064864 86.495542,12.8613344 C86.495542,17.5124704 82.9637654,20.8402784 78.0240633,20.8402784" id="O"></path>
                    <path d="M103.996701,20.6333344 L103.488743,20.6333344 L92.3072378,8.2825824 L92.3072378,17.5885664 C92.3072378,19.2561824 92.814275,19.7238944 94.5912059,20.0060064 L94.5912059,20.4505184 L89.2300463,20.4505184 L89.2300463,20.0060064 C90.9039133,19.7489504 91.2977644,18.8645664 91.274759,17.3816224 L91.274759,7.1912544 C90.0812431,5.9950624 89.8401473,5.8141024 89.2024399,5.6823264 L89.2024399,5.2424544 L93.8752803,5.2424544 L102.960541,15.4328224 L102.960541,8.5934624 C102.960541,6.7495264 102.640307,6.0470304 100.990365,5.6823264 L100.990365,5.2424544 L106.247541,5.2424544 L106.247541,5.6823264 C104.472451,5.7881184 103.996701,6.8284064 103.996701,8.1786464 L103.996701,20.6333344" id="N"></path>
                    <path d="M118.038043,8.8557152 L117.588979,8.8557152 C117.002804,7.0860192 115.333538,5.7097952 113.735128,5.7097952 C112.331804,5.7097952 111.188899,6.6183072 111.188899,7.7634592 C111.188899,8.3351072 111.481527,8.9086112 111.958197,9.3763232 C112.730256,10.1280032 116.287798,11.9728672 117.243899,12.9101472 C118.41349,14.0543712 118.941692,15.0946592 118.941692,16.4198432 C118.941692,19.7736352 115.86174,20.8399072 113.949538,20.8399072 C112.088868,20.8399072 110.949644,20.2413472 110.15182,20.2413472 C109.80858,20.2413472 109.515032,20.4223072 109.357676,20.7368992 L108.904011,20.7368992 L108.904011,16.1618592 L109.357676,16.1618592 C109.80858,18.4243232 111.295644,19.9824352 113.52532,19.9824352 C115.192745,19.9824352 116.392703,19.0729952 116.392703,17.8257632 C116.392703,17.3311392 116.181054,16.6564832 115.595798,16.0839072 C114.399522,14.9109152 111.66649,13.7926752 110.366229,12.5194592 C109.434974,11.6109472 108.98499,10.4927072 108.98499,9.2965152 C108.98499,6.6712032 111.000256,4.8532512 113.870399,4.8532512 C114.458415,4.8532512 114.985697,4.9571872 115.460527,5.0592672 C115.942719,5.1659872 116.392703,5.2689952 116.791155,5.2689952 C117.02949,5.2689952 117.293591,5.1381472 117.588979,4.8532512 L118.038043,4.8532512 L118.038043,8.8557152" id="S"></path>
                </g>
            </g>
        </g>
    </g>
</svg>