<svg xmlns="http://www.w3.org/2000/svg" viewBox="0 0 798 70">
  <defs>
    <style>
.raymond-james-logo-blue{fill:#002949;}
</style>
  </defs>
  <title>Raymond James</title>
  <path class="raymond-james-logo-blue" d="M42.85,32.95c9.1,0,13.7-3.5,13.7-12.8C56.55,11.55,53,7,44.05,7c-1,0-4.2-.1-4.5,1s-.3,7.4-.3,8.8v16.1Zm67.3,8.2-8.3-21.7L93,41.15Zm77.1-34.7c-3.6.5-5,3.1-6.8,6.3l-16,26.9v10.1c0,8.1-.2,12.2,9.2,11.9V65H108v-3.3c2.8-.4,7.8-.2,7.8-4.2,0-1.5-1.2-4.8-1.8-6.2l-2-5.4H91.15L90,48.65c-.9,2.4-2.3,5.4-2.3,7.9,0,4.6,4.3,4.9,7.8,5.2v3.4H64l-13.4-19c-3.1-4.3-7.2-9.1-9.8-8.9-.5,0-1,.1-1.5.1v12.4c0,7.7-.1,12.2,9,11.9V65H16v-3.4c9,.3,8.9-4.1,8.9-11.9V17.95c0-7.7.2-12.2-8.9-11.9V2.65c5.4.1,10.7.3,16,.4,5.1-.1,10.1-.3,15.3-.4,4.5.2,11.4.5,15.6,2.3,6.1,2.5,9.3,7.5,9.3,14.1,0,8.4-7.1,13.7-14.8,14.9L70.25,50a80.31,80.31,0,0,0,6.1,8c.8.8,2.1,1.9,3.7,0,2.7-3.2,4.3-7.9,5.8-11.4l18.7-44.9h4.5l19.4,48.5c1,2.5,2.9,7.2,4.8,9.1a12.21,12.21,0,0,0,6.2,2.2h1.9c8.9,0,8.6-3.9,8.7-11.9v-8.2l-16.3-29c-2.5-4.2-3-5.3-7.9-6.4V2.65c4.7.1,9.5.3,14.2.4,5.4-.1,10.7-.3,16.1-.4V6c-2.5.2-7.1.5-7.1,4.1,0,1.9,2.4,6.1,3.4,7.8l9.4,17.1,9.1-15.2c1.2-2.3,3.6-6.6,3.6-9.1,0-4.1-3.6-4.7-6.9-4.7V2.65h40.6l18.5,44,17-44c3.6.1,7.2.3,10.7.4,3.8-.1,7.5-.3,11.9-.4V6c-9.1-.3-8.8,4.3-8.9,12.1v29.6a39.91,39.91,0,0,0,.7,9.1c1,4,4.5,4.3,8.1,4.9v3.4h-31.9v-3.4c3.6-.6,7.2-1,8.1-4.9a45.94,45.94,0,0,0,.7-9.1V17.95H243L224.15,65h-4.5L200,17.25h-.2v28.9c0,3,0,9.1,1.4,11.7,1.5,2.8,4.7,3.5,7.6,3.8V65h-22.5v-3.4c3.6-.6,7.2-1,8.1-4.9a45.94,45.94,0,0,0,.7-9.1V10.25a8,8,0,0,0-7.8-3.8Z"/>
  <path class="raymond-james-logo-blue" d="M267.65,34c0-20.2,16.1-32.1,35.1-32.1s35,12.1,35,32.1-16.2,32.1-35.3,32.1S267.65,53.85,267.65,34Zm16.3-.6c0,12.1,3.3,28.4,18.5,28.4,15.5,0,19-14.2,19-27.2,0-12.6-3.3-28.4-19-28.4-15.1-.1-18.5,15.1-18.5,27.2Z"/>
  <path class="raymond-james-logo-blue" d="M407.15,6.15c-8.5.1-8.4,3.3-8.4,14.9v45.3h-4.6l-42.8-48.7v29.1c0,7.2,0,14.5,9.1,14.9V65h-22.2v-3.4c7.8-.8,8.4-4.6,8.4-11.3V12.55c-3-4.2-4.2-5.9-9.4-6.4V2.75c3,.1,6,.3,9,.4,3.6-.1,7.1-.3,10.7-.4l37.2,42.9V20.55c0-7.2,0-14.1-9-14.4V2.75h53.4c9.2,0,17.8,1.8,25,7.9,7.5,6.5,10.7,15.1,10.7,24.8,0,8.7-2.7,16.5-9.2,22.5-6.7,6-15.8,7.5-24.6,7.2-5-.1-30.4,0-30.4,0v-3.4c9.1.3,8.9-4.1,8.9-11.9V17.95c0-7.5.2-11.8-8.9-11.8Zm24.3,38.1c0,2.8,0,9.4.9,11.9,1.2,3.3,4.3,4.6,7.6,4.6,14.6,0,16-14.5,16-25.9,0-6.3-.9-13.9-3.8-19.6-3.4-6.4-9.9-8.2-16.7-8.2-.8,0-3.1.2-3.8.9a4.49,4.49,0,0,0-.4,2.3v34h.2Z"/>
  <path class="raymond-james-logo-blue" d="M509.05,42.85a3.46,3.46,0,0,0-1.2.7c-1.5,1.2-2.9,6-2.1,11a10.76,10.76,0,0,0,11.9,8.8c9.5-1.3,7.8-8.4,7.8-28.5V18.15c0-7.8-.3-12.3-9.5-12.1V2.65c4.7.1,10.1.3,14.9.4,5.9-.1,12.6-.3,18.6-.4V6c-7.8.2-8.9,1.5-8.9,12.1v22.7c0,15.6-4.1,23.8-19,26.4-10.9,1.9-25.6-.5-29.7-11.3-2-5.3-1.2-11.1-1.2-13.5l13.9-2.7,3.8-.7.7,3.8"/>
  <path class="raymond-james-logo-blue" d="M576.35,41.15l-8.3-21.7-8.9,21.7Zm161.5,4.1h3.7c2.6,8.6,7,16.5,17.4,16.5,5.5,0,10.8-3.6,10.8-9.4,0-8.8-9.1-11.2-15.7-14-8.5-3.7-15.4-8.4-15.4-18.8,0-11.6,8.9-17.8,19.8-17.8,5.1,0,10.4,1.1,14.1,4.6l1.2-3.7h4.1l.6,17h-4.1C772.65,12.35,767.25,6,759,6c-4.6,0-9.3,2.6-9.3,7.7,0,7.1,7.2,9,12.5,11.5,10.1,4.3,19.6,8.8,19.6,21.4S771.25,66,759.75,66c-6,0-12.2-2-16.4-6.4L742,65H648v-3.4c3.6-.6,7.2-1,8.1-4.9a45.94,45.94,0,0,0,.7-9.1V17.95h-.2L637.75,65h-4.5l-19.8-47.8h-.2v28.9c0,3,0,9.1,1.4,11.7,1.5,2.8,4.7,3.5,7.5,3.8V65H574v-3.4c2.8-.4,7.8-.2,7.8-4.2,0-1.5-1.2-4.8-1.8-6.2l-2-5.4h-20.8l-1.1,2.7c-.8,2.4-2.3,5.4-2.3,7.9,0,4.6,4.3,4.9,7.8,5.2V65h-21v-3.3c3.8-.7,6.1-3.8,7.9-7.2,1.3-2.6,2.4-5.2,3.4-7.8l18.7-44.9h4.5l19.4,48.5c1,2.5,2.9,7.3,4.8,9.1a6.78,6.78,0,0,0,2.3,1.4,3.31,3.31,0,0,0,2.4,0,5.41,5.41,0,0,0,3.6-4,45.94,45.94,0,0,0,.7-9.1V10.15c-1.7-3.3-5.4-3.9-8.8-4.2V2.55c3.4.1,6.9.3,10.3.4,4-.1,7.8-.3,11.8-.4l18.5,44,17-44h75.7l.8,16.6h-4.1c-1.6-9.3-7-12.3-16-12.3-1.1,0-7.2,0-7.7,1-.3.5-.3,4.6-.3,5.4v17.5c7.6,0,12.5-1.4,12.9-10.1h3.8c-.1,4.3-.3,8.7-.4,13,.1,3.9.3,7.8.4,11.7h-3.8c-1.8-8.7-4.2-10.1-12.9-10.1v10.9c0,8.9-.3,14.5,10.9,14.5h4.7c10-.2,13.8-3.5,16.2-13.8A8,8,0,0,0,737.85,45.25Zm-46.6-27.3c0-6.1.1-10.1-4.2-11.4a17.22,17.22,0,0,0-3.9-.4H679a15.81,15.81,0,0,0-3.8.4c-4.3,1.3-4.2,5.4-4.2,11.4v31.8c0,6.1-.1,10.1,4.2,11.4a17.22,17.22,0,0,0,3.9.4h4.1a15.81,15.81,0,0,0,3.8-.4c4.3-1.3,4.2-5.4,4.2-11.4Z"/>
</svg>
