<svg xmlns="http://www.w3.org/2000/svg" viewBox="0 0 297.3 139.4"><defs><style>.a{fill:#bd9b60;}.b{fill:#98a4ae;}</style></defs><title>Artboard 6</title><path class="a" d="M145.8,59.3a20.9,20.9,0,0,0,.1-2.5c-.4-3.2-1.3-24,0-33.4-3.4-1.3-14.3.7-16.6,2.1-1.7,5.9,2.1,25.2,6.2,36.4C138.6,66.6,144.1,62.2,145.8,59.3Z"/><path class="a" d="M160.3,70.4C165,55.8,169.7,30,168,22.2c-2.4-1.5-13.9-3.5-17.5-1.6,1.1,12.1-.2,38.4-.6,42.5a22.6,22.6,0,0,0,.1,4.5C153.1,72.1,157.5,76.3,160.3,70.4Z"/><path class="a" d="M186.7,3.4c-13.5-3.6-53.7-5-64.3-.9-1.4,2.9-1.6,15.6,1.2,19.1,13.6-3.6,41.8-7,46.6-7.3,9.2-1.1,16.6-5.6,18.5-8.8C189,4.8,188.8,3.9,186.7,3.4Z"/><path class="b" d="M79.8,139.4c-4.8,0-7.1-3.3-7.1-6.9a6.7,6.7,0,0,1,7.1-7.1,6.6,6.6,0,0,1,4.9,2l-1.1,1.1a5.7,5.7,0,0,0-3.8-1.5,5.4,5.4,0,1,0,0,10.8,5.7,5.7,0,0,0,3.8-1.6l1.2,1.2A7.4,7.4,0,0,1,79.8,139.4Z"/><path class="b" d="M105.4,125.6l6.1,13.6h-1.9l-1.3-3h-7.8l-1.3,3H97.4l6.1-13.6Zm-1,1.7-3.2,7.3h6.4Z"/><path class="b" d="M126.9,139.2h-1.7V125.6h6.2c6.3,0,6.3,9.2,0,9.2h-4.5Zm4.5-12h-4.5v6h4.5C135.4,133.2,135.4,127.2,131.4,127.2Z"/><path class="b" d="M150.2,125.6h1.7v13.6h-1.7Z"/><path class="b" d="M165.6,127.1v-1.5h11v1.5H172v12.1h-1.7V127.1Z"/><path class="b" d="M195.6,125.6l6.1,13.6h-1.8l-1.3-3h-7.8l-1.3,3h-1.9l6.1-13.6Zm-.9,1.7-3.2,7.3h6.4Z"/><path class="b" d="M217.2,137.6h7.4v1.6h-9.1V125.6h1.7Z"/><path class="b" d="M279.1,132.5l-22.5.3H245.3l-11.2-.4h0c3.7-.3,7.5-.4,11.2-.4s7.5,0,11.3.1l22.5.3Z"/><path class="b" d="M63.2,132.5l-11.3.4H40.7l-22.5-.3h0l22.5-.3c3.7-.1,7.5-.2,11.2-.1s7.5.1,11.3.4Z"/><path class="b" d="M0,106.6H2.3v3a15,15,0,0,0,4.7.8c2.8,0,4.5-1.6,4.5-4a3.4,3.4,0,0,0-1.2-2.7c-.7-.6-1.6-1-4.1-1.6S2,100.7,1.1,99.7A5.6,5.6,0,0,1,0,96.2,6,6,0,0,1,1.5,92a6.8,6.8,0,0,1,5.2-1.8,18.1,18.1,0,0,1,6,1.1V96H10.4V93.2a11,11,0,0,0-3.7-.6c-2.6,0-4.1,1.2-4.1,3.4a2.7,2.7,0,0,0,1.2,2.4c.6.5,1.5.8,3.6,1.3s4.3,1.4,5.4,2.5a6.2,6.2,0,0,1,1.4,4.1c0,4-2.7,6.4-7.2,6.4a19.6,19.6,0,0,1-7-1.3Z"/><path class="b" d="M34.7,92.9H29.9v2.9H27.6V90.6H44.3v5.2H42V92.9H37.3v17.2h2.9v2.2H31.7v-2.2h3Z"/><path class="b" d="M76.5,101.5c0,6.8-3.6,11.2-9.2,11.2s-9.2-4.4-9.2-11.4,3.6-11.1,9.2-11.1S76.5,94.6,76.5,101.5Zm-15.7-.2c0,5.7,2.5,9.1,6.5,9.1s6.5-3.5,6.5-8.9-2.5-8.9-6.5-8.9S60.8,96,60.8,101.3Z"/><path class="b" d="M93.2,92.9H90.9V90.6H96l8.2,13.9,1.3,2.5c-.1-1.4-.1-2-.1-2.8V92.9h-2.3V90.6h7v2.3h-2.2v19.7h-1.8L96.6,96.4a12,12,0,0,0-.6-1.2l-.5-1.1c.1,2,.1,2,.1,2.3v13.7h2.3v2.2h-7v-2.2h2.3Z"/><path class="b" d="M126.4,92.9h-2.2V90.6H139v5.2h-2.2V92.9h-7.7v7H136v2.2h-6.9v8h7.8v-3.5h2.3v5.7h-15v-2.2h2.2Z"/><path class="b" d="M156,92.9h-2.2V90.6h7.1v2.3h-2.3v6.9h9.7V92.9H166V90.6h7.1v2.3h-2.2v17.2h2.2v2.2H166v-2.2h2.3V102h-9.7v8.1h2.3v2.2h-7.1v-2.2H156Z"/><path class="b" d="M189.6,92.9h-2.2V90.6h14.8v5.2h-2.3V92.9h-7.7v7h6.9v2.2h-6.9v8h7.9v-3.5h2.2v5.7H187.4v-2.2h2.2Z"/><path class="b" d="M219.1,92.9h-2.2V90.6H222l8.2,13.9,1.3,2.5c-.1-1.4-.1-2-.1-2.8V92.9H229V90.6h7v2.3h-2.1v19.7h-1.8l-9.5-16.2a12,12,0,0,0-.6-1.2l-.5-1.1c.1,2,.1,2,.1,2.3v13.7h2.3v2.2h-7v-2.2h2.2Z"/><path class="b" d="M266.3,111.6a19.8,19.8,0,0,1-7,1.1c-3.4,0-5.7-1.1-7.4-3.5a13.2,13.2,0,0,1-1.9-7.6,12.7,12.7,0,0,1,2.7-8.5,8.7,8.7,0,0,1,6.9-2.9,16.1,16.1,0,0,1,6,1.2V96h-2.3V93.2a10.5,10.5,0,0,0-3.6-.6,5.8,5.8,0,0,0-5.4,2.7,11.3,11.3,0,0,0-1.6,6.4,11.5,11.5,0,0,0,1.6,6.3,5.9,5.9,0,0,0,5.1,2.4,16.3,16.3,0,0,0,4.5-.7v-6H260v-2.2h8.5v2.2h-2.2Z"/><path class="b" d="M284.5,92.9h-2.2V90.6h14.8v5.2h-2.3V92.9h-7.6v7H294v2.2h-6.8v8H295v-3.5h2.3v5.7h-15v-2.2h2.2Z"/></svg>