<?xml version="1.0" encoding="UTF-8"?>
<svg id="Layer_1" data-name="Layer 1" xmlns="http://www.w3.org/2000/svg" viewBox="0 0 72 61">
  <defs>
    <style>
      .cls-1 {
        fill: #00da81;
      }

      .cls-1, .cls-2, .cls-3, .cls-4 {
        stroke-width: 0px;
      }

      .cls-2 {
        fill: #102058;
      }

      .cls-3 {
        fill: #34264c;
      }

      .cls-4 {
        fill: #00e5c4;
      }
    </style>
  </defs>
  <g>
    <path class="cls-2" d="M4.62,53.61s0-.06-.02-.07c-.02-.02-.04-.03-.07-.04-.03-.01-.07-.02-.12-.03h-.04v-.24h.85v2.44l-.07.04-.16.43h-.37v-2.52ZM5.82,56.16c-.11,0-.21-.01-.3-.04-.09-.03-.16-.07-.23-.13-.07-.06-.13-.14-.2-.23v-.46c.06.12.12.21.17.3.06.08.12.14.19.19.07.04.14.07.23.07.08,0,.14-.02.2-.05.06-.04.1-.09.14-.15.04-.07.06-.14.08-.24.02-.09.03-.19.03-.31s0-.21-.03-.3c-.02-.09-.05-.16-.08-.22s-.08-.11-.13-.14c-.05-.03-.11-.05-.19-.05-.08,0-.16.02-.22.06-.07.04-.13.11-.2.19-.06.09-.13.2-.19.33v-.38c.08-.12.15-.22.22-.3.07-.08.15-.13.23-.17.08-.04.18-.05.3-.05.18,0,.34.04.48.13.14.09.24.2.32.36.07.15.11.33.11.54s-.04.39-.12.55-.19.28-.33.37c-.14.09-.3.14-.49.14Z"/>
    <path class="cls-2" d="M8.22,55.76l-.15.31-.19.2-.79-1.81s-.03-.07-.06-.08c-.02-.02-.05-.03-.08-.04-.03,0-.07-.01-.11-.01h0v-.22h1.12v.22h0s-.09,0-.13,0c-.04,0-.08,0-.11,0-.03,0-.04.01-.04.02l.56,1.4ZM8.23,56.04c-.08.17-.15.32-.22.45-.07.13-.15.23-.22.31-.08.08-.16.14-.24.18-.08.04-.17.06-.27.06-.07,0-.14,0-.19-.02-.05-.02-.09-.03-.12-.06v-.45s.03.01.06.03c.03.01.08.03.13.04.05.01.1.02.16.02.06,0,.12,0,.17-.02s.11-.05.16-.09c.05-.04.1-.11.16-.19s.1-.18.15-.31l.07-.15.6-1.42s-.01-.03-.04-.05c-.02-.01-.06-.02-.1-.03-.04,0-.09-.01-.13-.01h-.01v-.22h.81v.22h0s-.07,0-.1.02c-.03.01-.06.03-.08.05-.03.03-.05.06-.07.11l-.66,1.53Z"/>
  </g>
  <g>
    <path class="cls-1" d="M16.35,54.85c0,.24-.19.43-.43.43h-3.19v-.86h3.19c.24,0,.43.19.43.43ZM17.08,53.64l-3.18-1.34-.34.8,3.18,1.34c.26.11.28.35.28.42s-.02.31-.28.42l-3.17,1.34.34.8,3.17-1.34c.5-.21.81-.68.81-1.22s-.31-1.01-.81-1.22ZM19.33,54.85c0-.67-.3-1.3-.81-1.73h0s-2.29-1.86-2.29-1.86l-.54.67,2.27,1.85c.32.26.51.65.51,1.07s-.19.81-.51,1.07l-2.27,1.85.54.67,2.29-1.86h0c.52-.43.81-1.06.81-1.73Z"/>
    <path class="cls-2" d="M44.49,54.77v-.84h.58v-.9h.94v.9h.64v.84h-.64v1.09c0,.53.07.62.64.62v.88h-.14c-1.09,0-1.44-.37-1.44-1.49v-1.1h-.58ZM40.95,57.35v-5h.93v1.95c.23-.27.55-.44.94-.44.81,0,1.29.52,1.29,1.4v2.09h-.95v-1.96c0-.47-.21-.73-.63-.73-.36,0-.65.25-.65.82v1.87h-.94ZM38.23,57.42c-.73,0-1.65-.58-1.65-1.78s.89-1.78,1.66-1.78c.45,0,.79.18,1.02.44v-.37h.94v3.33c0,.97-.61,1.75-1.77,1.75-.87,0-1.51-.45-1.78-.99l.83-.47c.18.36.49.58.95.58.51,0,.83-.4.83-.84v-.32c-.23.27-.59.45-1.03.45ZM38.41,56.56c.51,0,.88-.42.88-.92s-.37-.92-.88-.92-.92.39-.92.92.4.92.92.92ZM35.02,57.35v-3.42h.94v3.42h-.94ZM34.92,53c0-.34.23-.57.56-.57s.57.23.57.57-.23.56-.57.56-.56-.23-.56-.56ZM32.66,57.42c-.9,0-1.51-.38-1.96-.9l.87-.68c.25.42.64.67,1.08.67.49,0,.75-.31.75-.66,0-.41-.5-.54-1.03-.71-.67-.21-1.42-.47-1.42-1.42,0-.8.7-1.44,1.66-1.44.81,0,1.28.31,1.68.73l-.79.6c-.21-.31-.5-.47-.89-.47-.45,0-.68.24-.68.55,0,.38.48.51,1.01.69.68.22,1.44.52,1.44,1.48,0,.79-.63,1.56-1.73,1.56ZM28.7,57.42c-.99,0-1.77-.79-1.77-1.78s.79-1.78,1.77-1.78,1.77.79,1.77,1.78-.79,1.78-1.77,1.78ZM28.7,56.53c.48,0,.86-.4.86-.89s-.38-.89-.86-.89-.86.4-.86.89.37.89.86.89ZM24.45,57.35v-3.42h.93v.56c.17-.36.48-.56.94-.56h.34v.91h-.56c-.5,0-.72.26-.72.9v1.62h-.94ZM20.45,57.35v-5h1.72c1.03,0,1.8.79,1.8,1.79s-.77,1.79-1.81,1.79h-.76v1.42h-.95ZM22.1,53.24h-.7v1.81h.7c.54,0,.91-.4.91-.9s-.37-.9-.91-.9ZM47.33,56.86h-.15v-.11h.41v.11h-.15v.49h-.1v-.49ZM47.67,56.75h.1l.16.25.17-.25h.1v.6h-.1v-.42l-.16.24-.16-.24v.42h-.1v-.6Z"/>
  </g>
  <g id="LOGO_ful_color" data-name="LOGO ful color">
    <path class="cls-3" d="M46.67,19.94l-3.17-3.15c-.09-.09-.21-.14-.34-.14h-3.57c-.12,0-.24.05-.33.14l-3.17,3.15c-.09.09-.14.21-.14.33v3.83c0,.13.05.25.14.33l3.17,3.15s.1.08.16.1c.03.01.05.02.08.02t0,0c.15.03.31-.01.42-.13l2.32-2.58c.19-.18.2-.47.03-.66-.09-.1-.22-.15-.35-.15h-2.04c-.26,0-.47-.21-.47-.47v-3.18c0-.26.21-.47.47-.47h3c.26,0,.47.21.47.47v6.71c0,.26.21.47.47.47h2.52c.26,0,.47-.21.47-.47v-6.99c0-.12-.05-.24-.13-.33"/>
    <path class="cls-3" d="M12.65,16.65h-3.04c-.12,0-.24.05-.33.14l-3.17,3.15c-.09.09-.14.21-.14.33v6.99c0,.26.21.47.47.47h2.52c.26,0,.47-.21.47-.47v-6.71c0-.26.21-.47.47-.47h2.76c.26,0,.47-.21.47-.47v-2.49c0-.26-.2-.47-.46-.47h0Z"/>
    <path class="cls-3" d="M33.15,19.94l-3.17-3.15c-.09-.09-.21-.14-.33-.14h-3.34c-.12,0-.24.05-.33.14l-1.24,1.24c-.18.18-.48.18-.66,0l-1.24-1.24c-.09-.09-.21-.14-.33-.14h-3.34c-.12,0-.24.05-.33.14l-3.17,3.15c-.09.09-.14.21-.14.33v6.99c0,.26.21.47.47.47h2.52c.26,0,.47-.21.47-.47v-6.71c0-.26.21-.47.47-.47h2.76c.23,0,.43.17.46.4v6.78c0,.26.21.47.47.47h2.53c.26,0,.47-.21.47-.47v-6.78c.03-.23.23-.4.46-.4h2.76c.26,0,.47.21.47.47v6.71c0,.26.21.47.47.47h2.52c.26,0,.47-.21.47-.47v-6.99c0-.13-.05-.25-.14-.33"/>
    <path class="cls-4" d="M41.06,1.98l-2.54,2.48c-.18.18-.19.48,0,.66.09.09.21.14.34.14h8.1c.26,0,.47.21.47.47v8.09c0,.26.2.47.46.47.13,0,.25-.05.34-.14l2.48-2.46c.09-.09.14-.21.14-.33V2.31c0-.26-.21-.47-.47-.47h-8.98c-.12,0-.24.05-.33.13"/>
    <path class="cls-3" d="M47.4,31.73v8.1c0,.26-.21.47-.47.47h-8.09c-.26,0-.47.21-.47.47,0,.12.05.24.14.33l2.45,2.48c.09.09.21.14.33.14h9.05c.26,0,.47-.21.47-.47v-8.98c0-.12-.05-.24-.13-.33l-2.48-2.54c-.18-.18-.48-.18-.66,0-.09.09-.14.2-.14.33"/>
    <path class="cls-3" d="M5.1,39.84v-8.09c0-.26-.21-.47-.47-.47-.12,0-.24.05-.33.13l-2.49,2.46c-.09.09-.14.21-.14.33v9.05c0,.26.21.47.47.47h8.98c.12,0,.24-.05.33-.13l2.54-2.48c.18-.18.19-.48,0-.66-.09-.09-.21-.14-.34-.14H5.57c-.26,0-.47-.21-.47-.47"/>
    <path class="cls-3" d="M11.22,1.85H2.17c-.26,0-.47.21-.47.47v8.98c0,.12.05.24.13.33l2.48,2.54c.18.18.48.19.66,0,.09-.09.14-.21.14-.34V5.74c0-.26.21-.47.47-.47h8.09c.26,0,.47-.21.47-.47,0-.12-.05-.24-.13-.33l-2.46-2.49c-.09-.09-.21-.14-.33-.14"/>
  </g>
</svg>